<svg width="59" height="29" viewBox="0 0 59 29" fill="none" xmlns="http://www.w3.org/2000/svg">
<rect x="0.5" y="0.5" width="58" height="28" rx="14" fill="#505050" stroke="#B1B1B1"/>
<rect x="2" y="2" width="28" height="25" rx="12.5" fill="#323232"/>
<g clip-path="url(#clip0_747_13581)">
<path d="M16.009 14C16.009 10.43 18.209 7.38003 21.319 6.13003C22.209 5.77003 22.069 4.44003 21.129 4.23003C20.029 3.99003 18.859 3.93003 17.649 4.09003C13.139 4.69003 9.52905 8.40003 9.05905 12.92C8.43905 18.93 13.129 24 19.009 24C19.739 24 20.439 23.92 21.129 23.77C22.079 23.56 22.229 22.24 21.329 21.87C18.109 20.58 15.999 17.46 16.009 14Z" fill="#F87C00"/>
</g>
<defs>
<clipPath id="clip0_747_13581">
<rect width="22.75" height="21" fill="white" transform="translate(5 4)"/>
</clipPath>
</defs>
</svg>
