<svg width="25" height="25" viewBox="0 0 25 25" fill="none" xmlns="http://www.w3.org/2000/svg">
<path d="M2.86719 21.4849H22.1359V14.6631L2.86719 21.4849ZM3.8724 19.6292L11.6797 11.8229L14.3401 14.4834L22.1359 6.68753V12.4459L3.8724 19.6292ZM16.3333 6.68701H22.1359H16.3333Z" fill="#B1B1B1"/>
<path d="M16.3333 6.68701H22.1359M2.86719 21.4849H22.1359V14.6631L2.86719 21.4849ZM3.8724 19.6292L11.6797 11.8229L14.3401 14.4834L22.1359 6.68753V12.4459L3.8724 19.6292Z" stroke="#B1B1B1" stroke-linecap="round" stroke-linejoin="round"/>
<path d="M8.56588 6.45947H3.99922C3.37186 6.45947 2.86328 6.96805 2.86328 7.59541V11.2392C2.86328 11.8665 3.37186 12.3751 3.99922 12.3751H8.56588C9.19324 12.3751 9.70182 11.8665 9.70182 11.2392V7.59541C9.70182 6.96805 9.19324 6.45947 8.56588 6.45947Z" stroke="#B1B1B1" stroke-linecap="round" stroke-linejoin="round"/>
<path d="M2.86328 10.403H8.10651M4.45807 8.43115H9.7013H4.45807Z" stroke="#B1B1B1" stroke-linecap="round" stroke-linejoin="round"/>
<path d="M6.27865 5.4318C6.80792 5.4318 7.23698 5.00274 7.23698 4.47347C7.23698 3.9442 6.80792 3.51514 6.27865 3.51514C5.74937 3.51514 5.32031 3.9442 5.32031 4.47347C5.32031 5.00274 5.74937 5.4318 6.27865 5.4318Z" stroke="#B1B1B1" stroke-linecap="round" stroke-linejoin="round"/>
</svg>
