<svg width="32" height="28" viewBox="0 0 32 28" fill="none" xmlns="http://www.w3.org/2000/svg">
<g clip-path="url(#clip0_953_3025)">
<path d="M19.25 10.5H21C22.9305 10.5 24.5 12.0695 24.5 14V24.5C24.5 26.4305 22.9305 28 21 28H3.5C1.5668 28 0 26.4305 0 24.5V14C0 12.0695 1.5668 10.5 3.5 10.5H15.75V7.875C15.75 3.5257 19.2773 0 23.625 0C27.9727 0 31.5 3.5257 31.5 7.875V10.5C31.5 11.468 30.718 12.25 29.75 12.25C28.782 12.25 28 11.468 28 10.5V7.875C28 5.45891 26.0422 3.5 23.625 3.5C21.2078 3.5 19.25 5.45891 19.25 7.875V10.5Z" fill="white"/>
</g>
<defs>
<clipPath id="clip0_953_3025">
<rect width="31.5" height="28" fill="white"/>
</clipPath>
</defs>
</svg>
