<svg width="25" height="25" viewBox="0 0 25 25" fill="none" xmlns="http://www.w3.org/2000/svg">
<path d="M13.5734 1.97202C13.2833 1.69774 12.8992 1.54492 12.5 1.54492C12.1008 1.54492 11.7167 1.69774 11.4266 1.97202L3.85781 9.12514C3.62607 9.34445 3.44153 9.60876 3.31553 9.90188C3.18952 10.195 3.12469 10.5108 3.125 10.8298V19.533C3.12542 20.1543 3.37253 20.75 3.81202 21.1892C4.25152 21.6284 4.84742 21.8751 5.46875 21.8751H7.8125C8.4341 21.8751 9.03024 21.6282 9.46978 21.1887C9.90932 20.7491 10.1563 20.153 10.1563 19.5314V15.6251C10.1563 15.4179 10.2386 15.2192 10.3851 15.0727C10.5316 14.9262 10.7303 14.8439 10.9375 14.8439H14.0625C14.2697 14.8439 14.4684 14.9262 14.6149 15.0727C14.7614 15.2192 14.8438 15.4179 14.8438 15.6251V19.5314C14.8438 20.153 15.0907 20.7491 15.5302 21.1887C15.9698 21.6282 16.5659 21.8751 17.1875 21.8751H19.5312C20.1529 21.8751 20.749 21.6282 21.1885 21.1887C21.6281 20.7491 21.875 20.153 21.875 19.5314V10.8283C21.8749 10.5094 21.8097 10.1938 21.6834 9.90097C21.5572 9.60813 21.3725 9.34413 21.1406 9.12514L13.5734 1.96889V1.97202Z" fill="#323232"/>
</svg>
