<svg xmlns="http://www.w3.org/2000/svg" version="1.1" xmlns:xlink="http://www.w3.org/1999/xlink" xmlns:svgjs="http://svgjs.dev/svgjs" width="100%" height="100%" viewBox="0 0 1000 600"><rect width="1000" height="600" x="0" y="0" fill="#f87c00"/><g><circle r="166.66666666666666" cx="304.4164377848307" cy="326.6386988257384" fill="#ec8b5e" transform="matrix(0.9074420098953153,0,0,0.9074420098953151,0,3.594289897289215)"/><path d="M304.9592869724771 401.63868271508727L304.9592869724771 401.63868271508727Q293.1048275154983 401.63868271508727 282.24802058707724 399.32060772226225Q271.3618709372279 397.00253272943723 262.91116716591625 391.8382137580801Q254.4604633946047 386.6445520652949 249.50154347324474 378.3992473439804Q244.51328083045667 370.1832853440941 244.51328083045667 358.12342683711825L244.51328083045667 358.12342683711825Q244.51328083045667 357.06708886570425 244.63065171616933 356.01075089429025Q244.74802260188198 354.9544129228764 244.74802260188198 353.8980749514624L244.74802260188198 353.8980749514624L265.0238431087442 353.8980749514624Q265.0238431087442 354.543614822882 264.9064722230315 355.92272273000583Q264.818444058747 357.2724879157014 264.818444058747 358.3288258871154L264.818444058747 358.3288258871154Q264.818444058747 366.779529658427 269.8653921443914 372.70675938691636Q274.94168295146403 378.6339891154057 283.92055570848265 381.4802330939377Q292.89942846550116 384.32647707246974 304.3137471010575 384.32647707246974L304.3137471010575 384.32647707246974Q309.39003790813007 384.32647707246974 314.9944977009096 383.68093720105014Q320.56961477226105 383.0647400510587 325.76327646504626 381.4802330939377Q330.9275954364034 379.89572613681685 335.0649191577747 377.254881208282Q339.1729001577178 374.6140362797471 341.6083460362555 370.7114543298011Q344.04379191479325 366.779529658427 344.04379191479325 361.08704170136286L344.04379191479325 361.08704170136286Q344.04379191479325 353.8980749514624 339.9064681934219 349.1445540800996Q335.7984871934788 344.39103320873687 329.02031854357267 341.3393901802076Q322.27149261509464 338.25840443025027 313.70341795807036 335.8523012731407Q305.16468602247426 333.416855394603 296.06844237974303 331.09878040177796Q287.00154145844 328.75136268752476 278.4334668014157 325.6997196589956Q269.8653921443914 322.64807663046633 263.11656621591345 318.0999548091007Q256.3677402874354 313.5518329877351 252.23041656606412 306.8030070592571Q248.122435566121 300.02483840935093 248.122435566121 290.31239761662823L248.122435566121 290.31239761662823Q248.122435566121 281.216153973897 251.8196184660698 274.0565299454247Q255.51680136601863 266.86756319552416 262.79379628020365 261.9086432741642Q270.10013391581674 256.92038063137613 280.8689126799534 254.27953570284126Q291.6376914440901 251.63869077430638 305.5754841224686 251.63869077430638L305.5754841224686 251.63869077430638Q316.9898027580249 251.63869077430638 326.81961443646026 254.07413665284412Q336.6494261148956 256.50958253138185 344.1318200790778 261.46850245274175Q351.643556764688 266.4274223741017 355.8689086503439 274.0565299454247Q360.09426053599964 281.65629479531947 360.09426053599964 292.4250735594561L360.09426053599964 292.4250735594561L360.09426053599964 294.9485476022783L340.2292381291318 294.9485476022783L340.2292381291318 291.7795336880365Q340.2292381291318 284.61990965956414 335.7984871934788 279.5436188524916Q331.36773625782587 274.467328045419 323.6506005222184 271.70911223117145Q315.9334647866109 268.9802391383521 306.22102399388825 268.9802391383521L306.22102399388825 268.9802391383521Q293.5449683369208 268.9802391383521 285.09426456560925 271.41568501688977Q276.6435607942976 273.8217881739993 272.5062370729263 278.369909995365Q268.39825607298314 282.91803181673055 268.39825607298314 288.61051977379464L268.39825607298314 288.61051977379464Q268.39825607298314 295.18328937370364 272.5062370729263 299.6140403093566Q276.6435607942976 304.04479124500955 283.39238672277565 306.89103522354156Q290.17055537268186 309.73727920207364 298.82665819399057 312.08469691632683Q307.48276101529933 314.40277190915197 316.4616337723179 316.8382177876897Q325.4405065293365 319.24432094479926 334.00858118636074 322.3253066947566Q342.5473131219568 325.37694972328575 349.41350993614753 329.92507154465136Q356.27970675033816 334.473193366017 360.2996595859968 341.3393901802076Q364.3196124216555 348.20558699439835 364.3196124216555 358.12342683711825L364.3196124216555 358.12342683711825Q364.3196124216555 373.5576983083331 356.7198475717606 383.15276821534314Q349.0907400004377 392.77718084378137 335.7984871934788 397.2079317794344Q322.4768916650918 401.63868271508727 304.9592869724771 401.63868271508727Z " fill="#121212" transform="matrix(0.9074420098953153,0,0,0.9074420098953151,0,3.594289897289215)"/><path d="M569.0039400843023 269.2220564230511L554.4164484445184 269.2220564230511L554.4164484445184 252.9522790175417L569.0039400843023 252.9522790175417L569.0039400843023 269.2220564230511ZM569.0039400843023 372.9246036253061L554.4164484445184 372.9246036253061L554.4164484445184 285.6531489019861L569.0039400843023 285.6531489019861L569.0039400843023 372.9246036253061ZM606.336857077114 372.9246036253061L591.7493654373302 372.9246036253061L591.7493654373302 285.6531489019861L603.5253657974084 285.6531489019861L604.861976405793 298.765759870449L606.0142269302626 298.765759870449Q609.3327084407347 293.44236244739994 613.4808103288249 290.1238809369278Q617.6289122169151 286.8053994264556 622.6066344826233 285.23833871317714Q627.5843567483316 283.6482329894092 633.3916993916579 283.6482329894092L633.3916993916579 283.6482329894092Q641.849218241264 283.6482329894092 648.0022360419312 287.0588945418389Q654.1322088321089 290.4695560942686 657.1280601957296 298.765759870449L657.1280601957296 298.765759870449L658.1189956467733 298.765759870449Q661.2761620838198 293.44236244739994 665.42426397191 290.21606097888537Q669.5723658600002 286.9667144998814 674.7114031991341 285.3074737446453Q679.8504405382681 283.6482329894092 685.6577831815944 283.6482329894092L685.6577831815944 283.6482329894092Q693.6313568109233 283.6482329894092 699.6000145276753 286.3905892376466Q705.5686722444274 289.132945485884 708.9793337968571 295.3550983180193Q712.3669503387974 301.5772511501546 712.3669503387974 312.03968591233775L712.3669503387974 312.03968591233775L712.3669503387974 372.9246036253061L697.7794586990135 372.9246036253061L697.7794586990135 314.3441869612767Q697.7794586990135 309.043834548717 696.5350281325865 305.5640379648191Q695.2905975661594 302.0842413809212 692.9630515067311 300.1715055103018Q690.6355054473026 298.25876963968244 687.5705190522137 297.4291492620644Q684.505532657125 296.5995288844464 681.0026910627375 296.5995288844464L681.0026910627375 296.5995288844464Q675.1953484194114 296.5995288844464 670.3098061956607 299.5953802480671Q665.42426397191 302.5681866011984 662.4284126082892 308.21421417109894Q659.4325612446686 313.8602417409995 659.4325612446686 321.6494552864134L659.4325612446686 321.6494552864134L659.4325612446686 372.9246036253061L644.8450696048847 372.9246036253061L644.8450696048847 314.3441869612767Q644.8450696048847 309.043834548717 643.5084589965002 305.5640379648191Q642.1948933986048 302.0842413809212 640.0286624126022 300.1715055103018Q637.8624314265995 298.25876963968244 634.7974450315107 297.4291492620644Q631.7324586364218 296.5995288844464 628.4139771259497 296.5995288844464L628.4139771259497 296.5995288844464Q622.4453194091976 296.5995288844464 617.3754171015319 299.5953802480671Q612.3285598043555 302.5681866011984 609.3327084407347 308.21421417109894Q606.336857077114 313.8602417409995 606.336857077114 321.6494552864134L606.336857077114 321.6494552864134L606.336857077114 372.9246036253061ZM749.0315620274168 401.6386866950861L734.444070387633 401.6386866950861L734.444070387633 285.6531489019861L746.0587556742855 285.6531489019861L747.556681356096 298.0974545662567L748.7089318805654 298.0974545662567Q753.179663915507 290.7921862411201 760.1623020937923 287.22020961526465Q767.121895261588 283.6482329894092 775.925089268535 283.6482329894092L775.925089268535 283.6482329894092Q786.8714692509952 283.6482329894092 794.4993677229834 288.4646401816917Q802.1272661949714 293.2810473739742 806.2753680830617 303.489987020774Q810.4234699711519 313.6989266675738 810.4234699711519 329.9456590625938L810.4234699711519 329.9456590625938Q810.4234699711519 345.2245010170593 806.2062330515935 355.249080579944Q801.9659511215457 365.29670515331804 794.3380526495577 370.1131123456005Q786.7101541775695 374.9064745273936 776.5933945727273 374.9064745273936L776.5933945727273 374.9064745273936Q770.9473670028268 374.9064745273936 765.9696447371185 373.59290892949844Q760.9919224714104 372.25629832111383 757.0051356567458 369.35262699945065Q753.0183488420814 366.44895567778747 750.0455424889501 361.9782236428458L750.0455424889501 361.9782236428458L749.0315620274168 361.9782236428458L749.0315620274168 401.6386866950861ZM771.9383024538705 362.13953871627155L771.9383024538705 362.13953871627155Q780.0731911566252 362.13953871627155 785.2122284957592 358.913237247757Q790.3512658348932 355.66389076875294 792.8401269677472 348.7734326324254Q795.3289881006015 341.9060195065872 795.3289881006015 331.12095459755267L795.3289881006015 331.12095459755267L795.3289881006015 327.6181130031654Q795.3289881006015 316.18778780042794 792.6788118943216 309.2973296641003Q790.0286356880417 302.40687152777264 784.9587333803759 299.411020164152Q779.9118760831994 296.43821381102066 772.4452926846371 296.43821381102066L772.4452926846371 296.43821381102066Q764.3104039818825 296.43821381102066 759.079186600791 300.0101904368761Q753.8479692196994 303.5591220522422 751.4512881288028 310.7030753039531Q749.0315620274168 317.847028555664 749.0315620274168 328.1251032339319L749.0315620274168 328.1251032339319L749.0315620274168 330.61396436678604Q749.0315620274168 339.7397885205845 750.7829828246106 345.8006262792941Q752.5344036218041 351.86146403800365 755.7607050903188 355.5025756953272Q758.9870065588334 359.1436873526509 763.1351084469236 360.6416130344612Q767.2832103350138 362.13953871627155 771.9383024538705 362.13953871627155ZM843.1243398555962 372.9246036253061L828.513803205323 372.9246036253061L828.513803205323 252.9522790175417L843.1243398555962 252.9522790175417L843.1243398555962 372.9246036253061ZM880.457256848408 269.2220564230511L865.8467201981348 269.2220564230511L865.8467201981348 252.9522790175417L880.457256848408 252.9522790175417L880.457256848408 269.2220564230511ZM880.457256848408 372.9246036253061L865.8467201981348 372.9246036253061L865.8467201981348 285.6531489019861L880.457256848408 285.6531489019861L880.457256848408 372.9246036253061ZM921.2699704251177 372.9246036253061L906.6594337748445 372.9246036253061L906.6594337748445 297.936139492831L893.7311828902966 297.936139492831L893.7311828902966 285.6531489019861L906.6594337748445 285.6531489019861L906.6594337748445 271.7109175559052Q906.6594337748445 266.5718802167712 908.1573594566548 262.00896813987197Q909.6552851384652 257.4460560629728 913.8033870265554 254.54238474130963Q917.9514889146456 251.63871341964648 925.4180723132079 251.63871341964648L925.4180723132079 251.63871341964648Q927.7456183726363 251.63871341964648 929.9809843901071 251.8922085350298Q932.2163504075779 252.12265863992369 934.2904013516231 252.5374688287327Q936.3644522956681 252.9522790175417 938.0236930509043 253.4592692483083L938.0236930509043 253.4592692483083L938.0236930509043 263.92170401049134L929.2435440544466 263.92170401049134Q925.0954421663564 263.92170401049134 923.182706295737 265.99575495453644Q921.2699704251177 268.06980589858154 921.2699704251177 271.87223262933094L921.2699704251177 271.87223262933094L921.2699704251177 285.6531489019861L938.0236930509043 285.6531489019861L938.0236930509043 297.936139492831L921.2699704251177 297.936139492831L921.2699704251177 372.9246036253061ZM964.2489149878302 269.2220564230511L949.6383783375568 269.2220564230511L949.6383783375568 252.9522790175417L964.2489149878302 252.9522790175417L964.2489149878302 269.2220564230511ZM964.2489149878302 372.9246036253061L949.6383783375568 372.9246036253061L949.6383783375568 285.6531489019861L964.2489149878302 285.6531489019861L964.2489149878302 372.9246036253061Z " fill="#ffffff" transform="matrix(0.9074420098953153,0,0,0.9074420098953151,0,3.594289897289215)"/></g></svg>