<svg width="38" height="38" viewBox="0 0 38 38" fill="none" xmlns="http://www.w3.org/2000/svg">
<path fill-rule="evenodd" clip-rule="evenodd" d="M9.49922 17.1V13.3C9.49922 10.7805 10.5001 8.36413 12.2817 6.58253C14.0633 4.80094 16.4797 3.80005 18.9992 3.80005C21.5188 3.80005 23.9351 4.80094 25.7167 6.58253C27.4983 8.36413 28.4992 10.7805 28.4992 13.3V17.1C29.507 17.1 30.4736 17.5004 31.1862 18.213C31.8989 18.9257 32.2992 19.8922 32.2992 20.9V30.4001C32.2992 31.4079 31.8989 32.3744 31.1862 33.0871C30.4736 33.7997 29.507 34.2001 28.4992 34.2001H9.49922C8.4914 34.2001 7.52485 33.7997 6.81221 33.0871C6.09957 32.3744 5.69922 31.4079 5.69922 30.4001V20.9C5.69922 19.8922 6.09957 18.9257 6.81221 18.213C7.52485 17.5004 8.4914 17.1 9.49922 17.1V17.1ZM24.6992 13.3V17.1H13.2992V13.3C13.2992 11.7883 13.8998 10.3385 14.9687 9.26954C16.0377 8.20058 17.4875 7.60005 18.9992 7.60005C20.511 7.60005 21.9608 8.20058 23.0297 9.26954C24.0987 10.3385 24.6992 11.7883 24.6992 13.3V13.3Z" fill="white"/>
</svg>
