<svg width="40" height="40" viewBox="0 0 40 40" fill="none" xmlns="http://www.w3.org/2000/svg">
<path d="M24.768 7.492L26.988 9.746L32 14.76V13.42C32 12.5 31.64 11.62 30.994 10.964L26.194 6.09C25.5427 5.42824 24.7663 4.90265 23.91 4.54384C23.0536 4.18502 22.1345 4.00016 21.206 4H11.5C10.6149 3.99976 9.7625 4.33491 9.11456 4.93794C8.46662 5.54098 8.07123 6.36712 8.008 7.25C8.99124 6.43997 10.2261 5.99795 11.5 6H21.206C21.869 6.00011 22.5253 6.13208 23.1369 6.38822C23.7484 6.64437 24.3028 7.01957 24.768 7.492V7.492ZM5 26C5.26522 26 5.51957 26.1054 5.70711 26.2929C5.89464 26.4804 6 26.7348 6 27V29C6 30.3261 6.52678 31.5979 7.46447 32.5355C8.40215 33.4732 9.67392 34 11 34H29C30.3261 34 31.5979 33.4732 32.5355 32.5355C33.4732 31.5979 34 30.3261 34 29V27C34 26.7348 34.1054 26.4804 34.2929 26.2929C34.4804 26.1054 34.7348 26 35 26C35.2652 26 35.5196 26.1054 35.7071 26.2929C35.8946 26.4804 36 26.7348 36 27V29C36 30.8565 35.2625 32.637 33.9498 33.9498C32.637 35.2625 30.8565 36 29 36H11C9.14349 36 7.36301 35.2625 6.05025 33.9498C4.7375 32.637 4 30.8565 4 29V27C4 26.7348 4.10536 26.4804 4.29289 26.2929C4.48043 26.1054 4.73478 26 5 26ZM20 8V17C20 17.7957 20.3161 18.5587 20.8787 19.1213C21.4413 19.6839 22.2044 20 23 20H32V29C32 29.7957 31.6839 30.5587 31.1213 31.1213C30.5587 31.6839 29.7957 32 29 32H11C10.2044 32 9.44129 31.6839 8.87868 31.1213C8.31607 30.5587 8 29.7957 8 29V11C8 10.2044 8.31607 9.44129 8.87868 8.87868C9.44129 8.31607 10.2044 8 11 8H20ZM12 15C12 15.2652 12.1054 15.5196 12.2929 15.7071C12.4804 15.8946 12.7348 16 13 16H17C17.2652 16 17.5196 15.8946 17.7071 15.7071C17.8946 15.5196 18 15.2652 18 15C18 14.7348 17.8946 14.4804 17.7071 14.2929C17.5196 14.1054 17.2652 14 17 14H13C12.7348 14 12.4804 14.1054 12.2929 14.2929C12.1054 14.4804 12 14.7348 12 15ZM13 18C12.7348 18 12.4804 18.1054 12.2929 18.2929C12.1054 18.4804 12 18.7348 12 19C12 19.2652 12.1054 19.5196 12.2929 19.7071C12.4804 19.8946 12.7348 20 13 20H17C17.2652 20 17.5196 19.8946 17.7071 19.7071C17.8946 19.5196 18 19.2652 18 19C18 18.7348 17.8946 18.4804 17.7071 18.2929C17.5196 18.1054 17.2652 18 17 18H13ZM12 23C12 23.2652 12.1054 23.5196 12.2929 23.7071C12.4804 23.8946 12.7348 24 13 24H17C17.2652 24 17.5196 23.8946 17.7071 23.7071C17.8946 23.5196 18 23.2652 18 23C18 22.7348 17.8946 22.4804 17.7071 22.2929C17.5196 22.1054 17.2652 22 17 22H13C12.7348 22 12.4804 22.1054 12.2929 22.2929C12.1054 22.4804 12 22.7348 12 23ZM22 8.5V17C22 17.2652 22.1054 17.5196 22.2929 17.7071C22.4804 17.8946 22.7348 18 23 18H31.5L22 8.5Z" fill="white"/>
</svg>
