<svg width="296" height="183" viewBox="0 0 296 183" fill="none" xmlns="http://www.w3.org/2000/svg">
<g clip-path="url(#clip0_747_13836)">
<path d="M75.9463 28.165H75.4648V53.9226H75.9463V28.165Z" fill="#3F3D56"/>
<path d="M75.9463 61.5898H75.4648V84.254H75.9463V61.5898Z" fill="#3F3D56"/>
<path d="M112.055 87.8643H74.7422V88.3457H112.055V87.8643Z" fill="#3F3D56"/>
<path d="M59.3369 94.3643H58.8555V114.826H59.3369V94.3643Z" fill="#3F3D56"/>
<path d="M119.758 118.437H63.1875V118.918H119.758V118.437Z" fill="#3F3D56"/>
<path d="M166.942 11.7959H166.461V36.1091H166.942V11.7959Z" fill="#3F3D56"/>
<path d="M162.848 39.96H127.453V40.4414H162.848V39.96Z" fill="#3F3D56"/>
<path d="M123.853 43.8115H123.371V76.3094H123.853V43.8115Z" fill="#3F3D56"/>
<path d="M75.7056 61.8663C74.8962 61.8663 74.105 61.6263 73.432 61.1766C72.759 60.7269 72.2345 60.0878 71.9248 59.34C71.6151 58.5922 71.534 57.7694 71.6919 56.9756C71.8498 56.1818 72.2396 55.4526 72.8119 54.8803C73.3842 54.3079 74.1134 53.9182 74.9072 53.7603C75.701 53.6024 76.5239 53.6834 77.2716 53.9932C78.0194 54.3029 78.6585 54.8274 79.1082 55.5004C79.5579 56.1734 79.7979 56.9646 79.7979 57.774C79.7967 58.8589 79.3651 59.8991 78.5979 60.6663C77.8307 61.4335 76.7906 61.8651 75.7056 61.8663ZM75.7056 54.1631C74.9914 54.1631 74.2933 54.3749 73.6995 54.7716C73.1057 55.1684 72.6429 55.7323 72.3696 56.3921C72.0963 57.0519 72.0248 57.778 72.1641 58.4784C72.3034 59.1788 72.6473 59.8222 73.1523 60.3272C73.6573 60.8322 74.3007 61.1761 75.0011 61.3154C75.7016 61.4548 76.4276 61.3833 77.0874 61.11C77.7472 60.8367 78.3111 60.3738 78.7079 59.78C79.1047 59.1862 79.3164 58.4881 79.3164 57.774C79.3154 56.8166 78.9346 55.8988 78.2577 55.2219C77.5807 54.5449 76.6629 54.1642 75.7056 54.1631Z" fill="#3F3D56"/>
<path d="M59.3384 122.77C58.529 122.77 57.7378 122.53 57.0648 122.08C56.3919 121.63 55.8673 120.991 55.5576 120.243C55.2479 119.496 55.1668 118.673 55.3247 117.879C55.4826 117.085 55.8724 116.356 56.4447 115.784C57.017 115.211 57.7462 114.821 58.54 114.664C59.3339 114.506 60.1567 114.587 60.9045 114.896C61.6522 115.206 62.2914 115.731 62.741 116.404C63.1907 117.077 63.4307 117.868 63.4307 118.677C63.4295 119.762 62.998 120.802 62.2308 121.57C61.4636 122.337 60.4234 122.768 59.3384 122.77ZM59.3384 115.066C58.6243 115.066 57.9261 115.278 57.3323 115.675C56.7385 116.072 56.2757 116.636 56.0024 117.295C55.7291 117.955 55.6576 118.681 55.7969 119.382C55.9363 120.082 56.2802 120.726 56.7851 121.231C57.2901 121.736 57.9335 122.079 58.634 122.219C59.3344 122.358 60.0604 122.287 60.7202 122.013C61.38 121.74 61.944 121.277 62.3407 120.683C62.7375 120.09 62.9493 119.391 62.9493 118.677C62.9482 117.72 62.5674 116.802 61.8905 116.125C61.2136 115.448 60.2957 115.067 59.3384 115.066Z" fill="#3F3D56"/>
<path d="M75.9453 91.957C78.0725 91.957 79.7969 90.2326 79.7969 88.1055C79.7969 85.9783 78.0725 84.2539 75.9453 84.2539C73.8182 84.2539 72.0938 85.9783 72.0938 88.1055C72.0938 90.2326 73.8182 91.957 75.9453 91.957Z" fill="#F87C00"/>
<path d="M215.328 57.5332H175.367V58.0147H215.328V57.5332Z" fill="#3F3D56"/>
<path d="M171.755 61.5898H171.273V84.254H171.755V61.5898Z" fill="#3F3D56"/>
<path d="M167.423 87.8643H135.406V88.3457H167.423V87.8643Z" fill="#3F3D56"/>
<path d="M224.955 90.0312H191.734V90.5127H224.955V90.0312Z" fill="#3F3D56"/>
<path d="M188.364 94.3643H187.883V114.826H188.364V94.3643Z" fill="#3F3D56"/>
<path d="M184.031 118.437H127.461V118.918H184.031V118.437Z" fill="#3F3D56"/>
<path d="M123.853 99.9004H123.371V114.825H123.853V99.9004Z" fill="#3F3D56"/>
<path d="M171.516 61.6261C173.643 61.6261 175.367 59.9017 175.367 57.7745C175.367 55.6473 173.643 53.9229 171.516 53.9229C169.388 53.9229 167.664 55.6473 167.664 57.7745C167.664 59.9017 169.388 61.6261 171.516 61.6261Z" fill="#F87C00"/>
<path d="M166.702 44.0528C165.892 44.0528 165.101 43.8128 164.428 43.3631C163.755 42.9135 163.231 42.2743 162.921 41.5266C162.611 40.7788 162.53 39.956 162.688 39.1621C162.846 38.3683 163.236 37.6391 163.808 37.0668C164.38 36.4945 165.109 36.1047 165.903 35.9468C166.697 35.7889 167.52 35.8699 168.268 36.1797C169.016 36.4894 169.655 37.0139 170.104 37.6869C170.554 38.3599 170.794 39.1511 170.794 39.9605C170.793 41.0455 170.361 42.0857 169.594 42.8529C168.827 43.6201 167.787 44.0516 166.702 44.0528ZM166.702 36.3496C165.988 36.3496 165.289 36.5614 164.696 36.9582C164.102 37.3549 163.639 37.9189 163.366 38.5787C163.092 39.2385 163.021 39.9645 163.16 40.6649C163.3 41.3654 163.643 42.0088 164.148 42.5138C164.653 43.0188 165.297 43.3627 165.997 43.502C166.698 43.6413 167.424 43.5698 168.084 43.2965C168.743 43.0232 169.307 42.5604 169.704 41.9666C170.101 41.3728 170.313 40.6747 170.313 39.9605C170.311 39.0032 169.931 38.0853 169.254 37.4084C168.577 36.7315 167.659 36.3507 166.702 36.3496Z" fill="#3F3D56"/>
<path d="M123.612 44.0528C122.802 44.0528 122.011 43.8128 121.338 43.3631C120.665 42.9135 120.141 42.2743 119.831 41.5266C119.521 40.7788 119.44 39.956 119.598 39.1621C119.756 38.3683 120.146 37.6391 120.718 37.0668C121.29 36.4945 122.02 36.1047 122.814 35.9468C123.607 35.7889 124.43 35.8699 125.178 36.1797C125.926 36.4894 126.565 37.0139 127.015 37.6869C127.464 38.3599 127.704 39.1511 127.704 39.9605C127.703 41.0455 127.271 42.0857 126.504 42.8529C125.737 43.6201 124.697 44.0516 123.612 44.0528ZM123.612 36.3496C122.898 36.3496 122.2 36.5614 121.606 36.9582C121.012 37.3549 120.549 37.9189 120.276 38.5787C120.003 39.2385 119.931 39.9645 120.07 40.6649C120.21 41.3654 120.554 42.0088 121.059 42.5138C121.564 43.0188 122.207 43.3627 122.907 43.502C123.608 43.6413 124.334 43.5698 124.994 43.2965C125.654 43.0232 126.217 42.5604 126.614 41.9666C127.011 41.3728 127.223 40.6747 127.223 39.9605C127.222 39.0032 126.841 38.0853 126.164 37.4084C125.487 36.7315 124.569 36.3507 123.612 36.3496Z" fill="#3F3D56"/>
<path d="M187.885 94.6047C187.076 94.6047 186.285 94.3647 185.612 93.915C184.939 93.4654 184.414 92.8262 184.104 92.0784C183.795 91.3306 183.714 90.5078 183.872 89.7139C184.03 88.9201 184.419 88.1909 184.992 87.6186C185.564 87.0462 186.293 86.6565 187.087 86.4986C187.881 86.3407 188.704 86.4217 189.451 86.7314C190.199 87.0412 190.838 87.5657 191.288 88.2387C191.738 88.9117 191.978 89.7029 191.978 90.5123C191.976 91.5973 191.545 92.6375 190.778 93.4048C190.01 94.172 188.97 94.6035 187.885 94.6047ZM187.885 86.9014C187.171 86.9014 186.473 87.1132 185.879 87.5099C185.285 87.9067 184.823 88.4707 184.549 89.1305C184.276 89.7903 184.204 90.5163 184.344 91.2168C184.483 91.9172 184.827 92.5607 185.332 93.0657C185.837 93.5707 186.48 93.9146 187.181 94.0539C187.881 94.1932 188.607 94.1217 189.267 93.8484C189.927 93.5751 190.491 93.1123 190.888 92.5185C191.284 91.9246 191.496 91.2265 191.496 90.5123C191.495 89.555 191.114 88.6371 190.437 87.9602C189.76 87.2832 188.843 86.9024 187.885 86.9014Z" fill="#3F3D56"/>
<path d="M187.883 122.529C190.01 122.529 191.734 120.805 191.734 118.678C191.734 116.551 190.01 114.826 187.883 114.826C185.756 114.826 184.031 116.551 184.031 118.678C184.031 120.805 185.756 122.529 187.883 122.529Z" fill="#F87C00"/>
<path d="M123.612 122.77C122.802 122.77 122.011 122.53 121.338 122.08C120.665 121.63 120.141 120.991 119.831 120.243C119.521 119.496 119.44 118.673 119.598 117.879C119.756 117.085 120.146 116.356 120.718 115.784C121.29 115.211 122.02 114.821 122.814 114.664C123.607 114.506 124.43 114.587 125.178 114.896C125.926 115.206 126.565 115.731 127.015 116.404C127.464 117.077 127.704 117.868 127.704 118.677C127.703 119.762 127.271 120.802 126.504 121.57C125.737 122.337 124.697 122.768 123.612 122.77ZM123.612 115.066C122.898 115.066 122.2 115.278 121.606 115.675C121.012 116.072 120.549 116.636 120.276 117.295C120.003 117.955 119.931 118.681 120.07 119.382C120.21 120.082 120.554 120.726 121.059 121.231C121.564 121.736 122.207 122.079 122.907 122.219C123.608 122.358 124.334 122.287 124.994 122.013C125.654 121.74 126.217 121.277 126.614 120.683C127.011 120.09 127.223 119.391 127.223 118.677C127.222 117.72 126.841 116.802 126.164 116.125C125.487 115.448 124.569 115.067 123.612 115.066Z" fill="#3F3D56"/>
<path d="M171.276 92.1972C170.466 92.1972 169.675 91.9572 169.002 91.5076C168.329 91.0579 167.805 90.4188 167.495 89.671C167.185 88.9232 167.104 88.1004 167.262 87.3066C167.42 86.5128 167.81 85.7836 168.382 85.2113C168.955 84.639 169.684 84.2492 170.478 84.0913C171.271 83.9334 172.094 84.0145 172.842 84.3242C173.59 84.6339 174.229 85.1585 174.678 85.8314C175.128 86.5044 175.368 87.2956 175.368 88.105C175.367 89.1899 174.935 90.2301 174.168 90.9973C173.401 91.7645 172.361 92.196 171.276 92.1972ZM171.276 84.4941C170.562 84.4941 169.864 84.7059 169.27 85.1027C168.676 85.4994 168.213 86.0634 167.94 86.7232C167.667 87.383 167.595 88.109 167.734 88.8094C167.874 89.5098 168.218 90.1532 168.723 90.6582C169.228 91.1632 169.871 91.5071 170.571 91.6464C171.272 91.7857 171.998 91.7142 172.658 91.4409C173.317 91.1676 173.881 90.7048 174.278 90.111C174.675 89.5172 174.887 88.8191 174.887 88.105C174.886 87.1476 174.505 86.2298 173.828 85.5529C173.151 84.876 172.233 84.4952 171.276 84.4941Z" fill="#3F3D56"/>
<path d="M59.3379 82.3281C58.3857 82.3281 57.4549 82.6105 56.6631 83.1395C55.8714 83.6685 55.2543 84.4205 54.8899 85.3002C54.5255 86.18 54.4302 87.148 54.616 88.0819C54.8017 89.0158 55.2603 89.8737 55.9336 90.547C56.6069 91.2204 57.4648 91.6789 58.3987 91.8647C59.3326 92.0504 60.3006 91.9551 61.1804 91.5907C62.0601 91.2263 62.812 90.6092 63.341 89.8175C63.8701 89.0257 64.1524 88.0949 64.1524 87.1426C64.1487 85.8669 63.6402 84.6445 62.7382 83.7424C61.8361 82.8403 60.6137 82.3319 59.3379 82.3281ZM59.3379 83.7725C59.6236 83.7725 59.9028 83.8572 60.1404 84.0159C60.3779 84.1746 60.563 84.4002 60.6723 84.6641C60.7817 84.928 60.8103 85.2184 60.7545 85.4986C60.6988 85.7788 60.5612 86.0362 60.3592 86.2382C60.1572 86.4402 59.8999 86.5777 59.6197 86.6334C59.3395 86.6892 59.0491 86.6606 58.7852 86.5512C58.5213 86.4419 58.2957 86.2568 58.137 86.0193C57.9783 85.7818 57.8936 85.5025 57.8936 85.2168C57.8949 84.8342 58.0474 84.4675 58.318 84.1969C58.5886 83.9263 58.9553 83.7738 59.3379 83.7725ZM59.3379 90.7258C58.7674 90.7232 58.206 90.5814 57.7027 90.3128C57.1993 90.0441 56.769 89.6567 56.4492 89.1842C56.4724 88.2213 58.375 87.6912 59.3379 87.6912C60.3008 87.6912 62.2035 88.2213 62.2266 89.1842C61.9065 89.6564 61.4762 90.0435 60.9728 90.3121C60.4695 90.5807 59.9084 90.7227 59.3379 90.7258Z" fill="#3F3D56"/>
<path d="M75.9473 16.6104C74.9951 16.6104 74.0642 16.8927 73.2725 17.4217C72.4808 17.9508 71.8637 18.7027 71.4993 19.5824C71.1349 20.4622 71.0396 21.4302 71.2253 22.3641C71.4111 23.298 71.8696 24.1559 72.5429 24.8292C73.2163 25.5025 74.0741 25.9611 75.008 26.1468C75.9419 26.3326 76.91 26.2373 77.7897 25.8729C78.6694 25.5085 79.4214 24.8914 79.9504 24.0996C80.4794 23.3079 80.7618 22.3771 80.7618 21.4248C80.758 20.1491 80.2496 18.9267 79.3475 18.0246C78.4454 17.1225 77.223 16.6141 75.9473 16.6104ZM75.9473 18.0547C76.2329 18.0547 76.5122 18.1394 76.7497 18.2981C76.9872 18.4568 77.1724 18.6824 77.2817 18.9463C77.391 19.2102 77.4196 19.5007 77.3639 19.7808C77.3081 20.061 77.1706 20.3184 76.9686 20.5204C76.7666 20.7224 76.5092 20.8599 76.2291 20.9156C75.9489 20.9714 75.6585 20.9428 75.3946 20.8335C75.1306 20.7241 74.9051 20.539 74.7464 20.3015C74.5876 20.064 74.5029 19.7847 74.5029 19.4991C74.5042 19.1164 74.6568 18.7497 74.9274 18.4792C75.198 18.2086 75.5646 18.056 75.9473 18.0547ZM75.9473 25.0079C75.3767 25.0053 74.8154 24.8636 74.312 24.5949C73.8086 24.3263 73.3784 23.9389 73.0586 23.4664C73.0817 22.5035 74.9844 21.9734 75.9473 21.9734C76.9102 21.9734 78.8128 22.5035 78.836 23.4664C78.5158 23.9386 78.0855 24.3257 77.5822 24.5943C77.0789 24.8629 76.5178 25.0048 75.9473 25.0079Z" fill="#3F3D56"/>
<path d="M166.701 0C165.749 0 164.818 0.282367 164.026 0.811392C163.235 1.34042 162.618 2.09234 162.253 2.97207C161.889 3.85181 161.793 4.81985 161.979 5.75377C162.165 6.68769 162.624 7.54555 163.297 8.21887C163.97 8.8922 164.828 9.35073 165.762 9.5365C166.696 9.72227 167.664 9.62693 168.544 9.26253C169.423 8.89813 170.175 8.28104 170.704 7.4893C171.233 6.69756 171.516 5.76672 171.516 4.81451C171.512 3.53877 171.004 2.31635 170.101 1.41426C169.199 0.512174 167.977 0.00373423 166.701 0ZM166.701 1.44435C166.987 1.44435 167.266 1.52906 167.504 1.68777C167.741 1.84648 167.926 2.07205 168.036 2.33597C168.145 2.5999 168.174 2.89031 168.118 3.17048C168.062 3.45066 167.925 3.70802 167.723 3.91002C167.521 4.11201 167.263 4.24957 166.983 4.3053C166.703 4.36103 166.412 4.33243 166.149 4.22311C165.885 4.11379 165.659 3.92867 165.5 3.69114C165.342 3.45362 165.257 3.17437 165.257 2.8887C165.258 2.50603 165.411 2.1394 165.681 1.8688C165.952 1.59821 166.319 1.44563 166.701 1.44435ZM166.701 8.39761C166.131 8.39501 165.569 8.25324 165.066 7.98461C164.563 7.71597 164.132 7.32858 163.813 6.85604C163.836 5.89314 165.738 5.36308 166.701 5.36308C167.664 5.36308 169.567 5.89314 169.59 6.85604C169.27 7.32823 168.839 7.71534 168.336 7.98393C167.833 8.25253 167.272 8.39451 166.701 8.39761Z" fill="#3F3D56"/>
<path d="M222.068 52.7188C221.116 52.7188 220.185 53.0011 219.394 53.5301C218.602 54.0592 217.985 54.8111 217.62 55.6908C217.256 56.5706 217.161 57.5386 217.346 58.4725C217.532 59.4064 217.991 60.2643 218.664 60.9376C219.337 61.6109 220.195 62.0695 221.129 62.2552C222.063 62.441 223.031 62.3457 223.911 61.9813C224.791 61.6169 225.542 60.9998 226.072 60.208C226.601 59.4163 226.883 58.4855 226.883 57.5332C226.879 56.2575 226.371 55.0351 225.469 54.133C224.567 53.2309 223.344 52.7225 222.068 52.7188ZM222.068 54.1631C222.354 54.1631 222.633 54.2478 222.871 54.4065C223.108 54.5652 223.293 54.7908 223.403 55.0547C223.512 55.3186 223.541 55.609 223.485 55.8892C223.429 56.1694 223.292 56.4268 223.09 56.6288C222.888 56.8308 222.63 56.9683 222.35 57.024C222.07 57.0798 221.78 57.0512 221.516 56.9419C221.252 56.8325 221.026 56.6474 220.867 56.4099C220.709 56.1724 220.624 55.8931 220.624 55.6074C220.625 55.2248 220.778 54.8581 221.049 54.5875C221.319 54.317 221.686 54.1644 222.068 54.1631ZM222.068 61.1163C221.498 61.1137 220.936 60.972 220.433 60.7033C219.93 60.4347 219.499 60.0473 219.18 59.5748C219.203 58.6119 221.106 58.0818 222.068 58.0818C223.031 58.0818 224.934 58.6119 224.957 59.5748C224.637 60.047 224.207 60.4341 223.703 60.7027C223.2 60.9713 222.639 61.1132 222.068 61.1163Z" fill="#3F3D56"/>
<path d="M231.217 85.2168C230.265 85.2168 229.334 85.4992 228.542 86.0282C227.75 86.5572 227.133 87.3091 226.769 88.1889C226.404 89.0686 226.309 90.0366 226.495 90.9706C226.681 91.9045 227.139 92.7624 227.812 93.4357C228.486 94.109 229.344 94.5675 230.278 94.7533C231.212 94.9391 232.18 94.8437 233.059 94.4793C233.939 94.1149 234.691 93.4978 235.22 92.7061C235.749 91.9144 236.031 90.9835 236.031 90.0313C236.028 88.7556 235.519 87.5331 234.617 86.6311C233.715 85.729 232.493 85.2205 231.217 85.2168ZM231.217 86.6611C231.503 86.6611 231.782 86.7459 232.019 86.9046C232.257 87.0633 232.442 87.2888 232.551 87.5528C232.661 87.8167 232.689 88.1071 232.633 88.3873C232.578 88.6675 232.44 88.9248 232.238 89.1268C232.036 89.3288 231.779 89.4664 231.499 89.5221C231.218 89.5778 230.928 89.5492 230.664 89.4399C230.4 89.3306 230.175 89.1455 230.016 88.9079C229.857 88.6704 229.773 88.3912 229.773 88.1055C229.774 87.7228 229.926 87.3562 230.197 87.0856C230.468 86.815 230.834 86.6624 231.217 86.6611ZM231.217 93.6144C230.646 93.6118 230.085 93.47 229.582 93.2014C229.078 92.9328 228.648 92.5454 228.328 92.0728C228.351 91.1099 230.254 90.5799 231.217 90.5799C232.18 90.5799 234.082 91.1099 234.106 92.0728C233.785 92.545 233.355 92.9321 232.852 93.2007C232.348 93.4693 231.787 93.6113 231.217 93.6144Z" fill="#3F3D56"/>
<path d="M123.919 85.1367L123.426 87.1142C123.985 87.2536 125.709 87.8221 125.988 86.7031C126.279 85.5363 124.478 85.2761 123.919 85.1367Z" fill="#F87C00"/>
<path d="M123.177 88.1123L122.633 90.2927C123.304 90.4596 125.375 91.1244 125.681 89.8943C126.001 88.6118 123.848 88.2798 123.177 88.1123Z" fill="#F87C00"/>
<path d="M126.146 79.2496C124.414 78.8177 122.593 78.9091 120.913 79.5123C119.233 80.1155 117.77 81.2033 116.708 82.6382C115.646 84.0731 115.034 85.7906 114.948 87.5736C114.862 89.3566 115.307 91.125 116.227 92.6551C117.146 94.1852 118.498 95.4083 120.113 96.1698C121.727 96.9313 123.531 97.197 125.297 96.9332C127.062 96.6694 128.71 95.888 130.031 94.6879C131.352 93.4878 132.288 91.9227 132.72 90.1907C133.007 89.0407 133.065 87.8454 132.89 86.673C132.715 85.5007 132.31 84.3744 131.7 83.3584C131.089 82.3423 130.285 81.4565 129.332 80.7515C128.379 80.0465 127.297 79.5361 126.146 79.2496ZM127.943 86.7209C127.813 87.6003 127.325 88.0261 126.678 88.1751C127.567 88.6376 128.019 89.3472 127.588 90.5773C127.054 92.1047 125.783 92.2338 124.095 91.9141L123.685 93.5568L122.694 93.31L123.098 91.6892C122.835 91.6239 122.571 91.5557 122.309 91.4846L121.903 93.1129L120.914 92.8659L121.324 91.2203C121.092 91.1611 120.858 91.098 120.618 91.0381L119.329 90.7165L119.82 89.5829C119.82 89.5829 120.55 89.7772 120.54 89.7627C120.586 89.7772 120.633 89.7827 120.681 89.7787C120.728 89.7747 120.774 89.7613 120.816 89.7395C120.859 89.7176 120.896 89.6876 120.926 89.6512C120.957 89.6147 120.98 89.5726 120.994 89.5273L121.642 86.9306C121.678 86.9395 121.714 86.9482 121.746 86.9566C121.713 86.9434 121.679 86.9324 121.644 86.9236L122.106 85.0698C122.119 84.9325 122.079 84.7953 121.993 84.6876C121.906 84.58 121.781 84.5104 121.644 84.494C121.66 84.4834 120.925 84.3151 120.925 84.3151L121.188 83.2571L122.555 83.5982L122.553 83.6033C122.759 83.6543 122.97 83.7027 123.186 83.7518L123.592 82.1253L124.582 82.372L124.184 83.9668C124.45 84.0275 124.717 84.0886 124.978 84.1534L125.373 82.5691L126.363 82.8159L125.958 84.4432C127.208 84.8738 128.122 85.5195 127.943 86.7209Z" fill="#F87C00"/>
<path d="M36.5901 176.523C35.9052 182.752 -0.0544287 182.229 6.18654e-05 176.522C0.685016 170.294 36.6446 170.817 36.5901 176.523Z" fill="#E6E6E6"/>
<path d="M24.9766 160.842L26.4344 164L29.1067 163.757L30.8074 158.17L28.1349 156.712L24.9766 160.842Z" fill="#FFB8B8"/>
<path d="M15.8036 168.116L15.7461 170.317L19.8762 170.56V167.888L15.8036 168.116Z" fill="#FFB8B8"/>
<path d="M17.2037 128.044L18.1755 147.48L15.7461 168.617L23.0345 169.588L27.6507 142.864L29.1083 124.643L17.2037 128.044Z" fill="#2F2E41"/>
<path d="M5.78144 120.998C5.78144 120.998 2.86603 140.191 8.9398 146.508C15.0136 152.825 23.2739 164 23.2739 164L29.1047 156.712L14.2847 140.92L17.2001 130.23L29.1047 124.642L27.1611 111.28L9.66865 111.037L5.78144 120.998Z" fill="#2F2E41"/>
<path d="M20.1184 76.5385C23.0703 76.5385 25.4633 74.1455 25.4633 71.1936C25.4633 68.2416 23.0703 65.8486 20.1184 65.8486C17.1664 65.8486 14.7734 68.2416 14.7734 71.1936C14.7734 74.1455 17.1664 76.5385 20.1184 76.5385Z" fill="#FFB8B8"/>
<path d="M15.5016 72.4082C15.5016 72.4082 15.2586 79.9397 14.0439 80.9115C12.8291 81.8833 18.417 86.0135 18.417 86.0135L22.0613 80.1826V74.8377L15.5016 72.4082Z" fill="#FFB8B8"/>
<path d="M17.9323 82.6121L14.9827 78.1582L13.3161 80.4256L10.8867 87.2282L12.8303 113.71L24.2489 113.952L25.7067 83.5839L22.0624 79.2109L17.9323 82.6121Z" fill="#F87C00"/>
<path d="M30.3201 84.3123L32.2637 84.0693C32.2637 84.0693 32.7496 84.3123 32.9926 86.0129C33.2355 87.7136 36.1509 102.777 36.1509 102.777L32.2637 121.241L27.8906 115.41L30.5631 105.206L27.8906 95.0021L30.3201 84.3123Z" fill="#2F2E41"/>
<path d="M5.53943 84.0693H4.0816L0.4375 103.748L3.83871 119.054L7.23991 113.466L6.2681 107.393L6.75413 102.048L8.45485 98.8894L5.53943 84.0693Z" fill="#2F2E41"/>
<path d="M26.6788 167.401L26.7737 167.37L26.7737 167.37L26.7735 167.369L26.773 167.368L26.771 167.362L26.7629 167.337L26.7322 167.243C26.7057 167.162 26.6678 167.045 26.6224 166.901C26.5314 166.613 26.4102 166.219 26.2891 165.795C26.1679 165.371 26.047 164.917 25.9565 164.51C25.8655 164.1 25.807 163.745 25.807 163.514C25.807 163.3 25.8848 163.182 25.9903 163.112C26.1029 163.037 26.2616 163.007 26.4359 163.007C26.608 163.007 26.7824 163.036 26.9153 163.065C26.9813 163.08 27.0363 163.095 27.0746 163.106C27.0938 163.111 27.1087 163.116 27.1187 163.119L27.1298 163.122L27.1325 163.123L27.1331 163.123L27.1331 163.123L27.1331 163.123L27.1332 163.123L27.1546 163.13L27.1771 163.128C28.1802 163.002 28.8151 162.513 29.1952 161.848C29.572 161.189 29.6942 160.364 29.6942 159.566C29.6942 158.767 29.5714 157.986 29.4491 157.405C29.3879 157.114 29.3267 156.873 29.2807 156.704C29.2718 156.672 29.2635 156.642 29.2558 156.615C29.3496 156.641 29.4776 156.677 29.6317 156.721C29.9697 156.816 30.4331 156.945 30.9345 157.081C31.9359 157.355 33.0934 157.659 33.7048 157.782C33.8174 157.804 33.8966 157.875 33.9497 158.001C34.0048 158.131 34.0286 158.315 34.023 158.543C34.0119 158.997 33.8858 159.587 33.7193 160.177C33.5532 160.765 33.3493 161.347 33.1866 161.782C33.1053 162 33.0344 162.18 32.9839 162.306C32.9586 162.369 32.9384 162.419 32.9246 162.453L32.9088 162.491L32.9047 162.5L32.9037 162.503L32.9034 162.503L32.9034 162.504L32.9955 162.542M26.6788 167.401L26.7775 167.418L26.7775 167.418L26.7773 167.419L26.7765 167.424L26.7735 167.443L26.7618 167.518C26.7517 167.583 26.7372 167.679 26.7194 167.801C26.6839 168.045 26.6356 168.394 26.5845 168.811C26.4822 169.644 26.3686 170.75 26.3232 171.839C26.2777 172.931 26.3011 173.998 26.469 174.759C26.5532 175.141 26.6712 175.433 26.8248 175.614C26.9005 175.703 26.983 175.763 27.0729 175.795C27.1623 175.827 27.2653 175.834 27.386 175.807C27.9067 175.691 28.4067 175.356 28.8703 174.889C29.3332 174.422 29.7535 173.83 30.1153 173.212C30.84 171.974 31.321 170.648 31.4398 170.054C31.5612 169.447 31.9255 167.565 32.2596 165.834C32.4266 164.968 32.5861 164.141 32.7037 163.53L32.8447 162.797L32.8836 162.595L32.8938 162.542L32.8965 162.528L32.8971 162.525L32.8973 162.524L32.8973 162.524L32.9955 162.542M26.6788 167.401L26.7737 167.37L26.7815 167.393L26.7775 167.417L26.6788 167.401ZM32.9955 162.542L32.8973 162.524L32.8993 162.513L32.9034 162.504L32.9955 162.542Z" fill="#323232" stroke="#323232" stroke-width="0.2"/>
<path d="M20.0221 170.619L20.0363 170.627L20.0377 170.631C20.0464 170.654 20.0593 170.689 20.0756 170.733C20.1081 170.822 20.1544 170.95 20.2092 171.109C20.3188 171.426 20.4625 171.865 20.5985 172.348C20.7345 172.832 20.8625 173.36 20.9414 173.856C21.0206 174.353 21.0489 174.811 20.9909 175.16C20.9631 175.326 20.9448 175.474 20.9286 175.604C20.9268 175.618 20.9251 175.632 20.9234 175.646C20.9057 175.787 20.8901 175.903 20.8668 176.004C20.8219 176.198 20.7506 176.323 20.5816 176.427C20.4018 176.538 20.1074 176.627 19.6027 176.718C19.101 176.808 18.4054 176.899 17.4329 177.02C16.4724 177.141 15.8262 177.034 15.3945 176.818C14.9659 176.603 14.739 176.277 14.6247 175.934C14.5095 175.588 14.5086 175.224 14.5382 174.944C14.5529 174.804 14.575 174.686 14.5933 174.604C14.6025 174.562 14.6107 174.53 14.6165 174.508L14.6233 174.484L14.625 174.478L14.6254 174.477L14.6254 174.477L14.6255 174.477L14.6255 174.477L14.6282 174.468L14.6293 174.458C14.7909 172.977 15.1151 171.518 15.5958 170.108C15.6802 169.883 15.808 169.726 15.9655 169.62C16.1243 169.512 16.3187 169.451 16.5401 169.429C16.9856 169.386 17.5236 169.502 18.0506 169.683C18.5754 169.863 19.0791 170.103 19.4524 170.299C19.6389 170.397 19.7923 170.484 19.899 170.546C19.9523 170.577 19.9939 170.602 20.0221 170.619Z" fill="#323232" stroke="#323232" stroke-width="0.2"/>
<path d="M16.9584 71.1927L17.9302 70.9497C17.9302 70.9497 18.6591 66.8196 20.3597 67.3055C22.0604 67.7914 26.4335 68.2773 26.4335 66.3337C26.4335 64.3901 22.3033 62.6894 19.8738 62.9324C17.4443 63.1753 13.3142 63.9042 13.5571 67.5484C13.8001 71.1927 15.3678 74.7378 15.3678 74.7378L15.4944 72.5771L16.9584 71.1927Z" fill="#2F2E41"/>
<path d="M22.0598 85.5276L17.9297 82.6121L22.0598 79.2109L23.4938 80.9314L22.0598 85.5276Z" fill="#F87C00"/>
<path d="M14.2882 85.2838L17.9325 82.6113L15.0171 78.2383L13.3164 80.4248L14.2882 85.2838Z" fill="#F87C00"/>
<path d="M32.023 84.0691L24.2486 80.9108L22.4265 79.5746L16.9601 103.748L13.3158 92.8153L14.4091 78.8457L4.32668 84.0691L7.728 100.59L8.2139 106.906L6.75619 112.008C6.75619 112.008 1.65423 115.653 3.35488 119.54C5.05554 123.427 6.99914 123.67 6.99914 123.67C6.99914 123.67 15.2595 115.896 15.7454 113.952C16.2313 112.008 16.9601 108.607 16.9601 108.607C16.9601 108.607 21.0903 124.156 25.9493 123.913C30.8083 123.67 30.8083 118.568 30.8083 118.568L29.5935 113.223L27.6499 107.635L28.6217 98.4032L32.023 84.0691Z" fill="#2F2E41"/>
</g>
<path d="M212.523 114.75C212.77 114.403 213.095 114.118 213.472 113.918C213.849 113.718 214.268 113.609 214.694 113.6C215.121 113.59 215.543 113.681 215.929 113.864C216.314 114.047 216.651 114.318 216.913 114.655L226.117 111.526L224.841 116.414L216.297 118.635C215.762 118.997 215.117 119.16 214.474 119.094C213.831 119.028 213.232 118.738 212.782 118.275C212.331 117.811 212.059 117.204 212.011 116.56C211.964 115.915 212.145 115.275 212.523 114.75Z" fill="#FFB8B8"/>
<path d="M257.88 134.124C258.1 133.791 258.244 133.413 258.303 133.017C258.361 132.621 258.332 132.218 258.217 131.835C258.103 131.451 257.905 131.098 257.639 130.799C257.374 130.501 257.045 130.264 256.678 130.106L257.383 120.411L252.976 122.879L252.982 131.707C252.757 132.342 252.773 133.037 253.027 133.66C253.28 134.284 253.753 134.793 254.357 135.091C254.961 135.389 255.653 135.455 256.302 135.277C256.951 135.099 257.513 134.689 257.88 134.124V134.124Z" fill="#FFB8B8"/>
<path d="M256.752 96.4484L257.957 127.3L253.061 127.028L251.973 94.658L253.005 94.1721C253.398 93.9873 253.831 93.9026 254.264 93.9256C254.698 93.9486 255.119 94.0786 255.49 94.3041C255.861 94.5295 256.17 94.8433 256.391 95.2175C256.611 95.5917 256.735 96.0146 256.752 96.4484Z" fill="#8FBAAD"/>
<path d="M241.574 179.763L238.239 179.762L236.652 166.899L241.574 166.9L241.574 179.763Z" fill="#FFB8B8"/>
<path d="M235.913 178.808H242.344V182.857H231.863C231.863 182.325 231.968 181.799 232.172 181.307C232.375 180.816 232.673 180.37 233.049 179.994C233.425 179.618 233.872 179.319 234.363 179.116C234.854 178.912 235.381 178.808 235.913 178.808Z" fill="#F87C00"/>
<path d="M269.359 175.777L266.332 177.178L259.488 166.172L263.955 164.104L269.359 175.777Z" fill="#FFB8B8"/>
<path d="M263.804 177.312L269.64 174.611L271.341 178.285L261.83 182.688C261.379 181.714 261.333 180.6 261.703 179.592C262.074 178.584 262.829 177.764 263.804 177.312Z" fill="#F87C00"/>
<path d="M233.722 137.802L237.161 177.051L241.785 176.507L245.203 140.655L264.09 174.875L268.987 173.515C268.987 173.515 253.227 126.375 252.003 122.43C250.661 118.107 240.035 116.446 240.035 116.446L239.627 116.038C235.06 122.185 233.231 130.161 233.722 137.802Z" fill="#2F2E41"/>
<path d="M252.013 90.7769C255.703 90.7769 258.694 87.7858 258.694 84.096C258.694 80.4062 255.703 77.415 252.013 77.415C248.323 77.415 245.332 80.4062 245.332 84.096C245.332 87.7858 248.323 90.7769 252.013 90.7769Z" fill="#FFB8B8"/>
<path d="M256.258 96.9807L251.615 121.182C251.615 121.182 244.558 119.773 242.045 118.075C241.049 117.401 240.146 116.704 239.385 116.073C239.235 115.951 239.094 115.829 238.955 115.712C237.698 114.637 236.926 113.837 236.926 113.837C236.926 113.837 237.328 111.865 237.821 109.531C238.37 106.917 239.037 103.846 239.377 102.592C240.125 99.8423 242.692 96.638 244.694 94.4565C245.419 93.6653 246.346 93.0864 247.375 92.7816C248.403 92.4768 249.496 92.4578 250.535 92.7265L254.158 93.6622C254.864 93.8444 255.475 94.2891 255.865 94.9056C256.255 95.5222 256.396 96.2642 256.258 96.9807Z" fill="#8FBAAD"/>
<path opacity="0.2" d="M245.029 107.555C245.029 107.555 242.532 112.745 238.955 115.715C237.698 114.641 236.926 113.841 236.926 113.841C236.926 113.841 237.328 111.869 237.821 109.535C240.818 107.952 243.908 106.954 245.029 107.555Z" fill="black"/>
<path d="M249.417 98.0635C249.171 97.9377 248.913 97.8353 248.647 97.7576C248.105 97.6089 247.534 97.5972 246.986 97.7235C246.438 97.8498 245.929 98.1101 245.507 98.4812L230.83 109.232L219.156 113.158L221.265 118.147L238.668 113.897L250.209 103.64C250.606 103.26 250.907 102.79 251.087 102.269C251.267 101.749 251.32 101.194 251.243 100.649C251.165 100.104 250.959 99.5855 250.642 99.1359C250.324 98.6864 249.905 98.3187 249.417 98.0635Z" fill="#8FBAAD"/>
<path d="M252.403 90.7126C253.353 89.2893 254.104 87.3158 253.057 85.9616C252.024 84.6249 249.985 84.8218 248.403 84.2303C246.198 83.4065 244.92 80.8168 245.319 78.4975C245.717 76.1782 247.579 74.2556 249.797 73.4689C252.015 72.6822 254.516 72.9381 256.688 73.844C259.362 74.9592 261.655 77.1164 262.617 79.849C263.579 82.5817 263.065 85.8627 261.069 87.9631C258.93 90.2149 255.573 90.815 252.468 90.7786" fill="#2F2E41"/>
<path d="M262.906 82.8423C263.178 84.3632 264.846 85.227 266.38 85.4168C267.913 85.6067 269.499 85.3632 270.992 85.762C273.623 86.465 275.359 88.9957 276.314 91.5465C277.27 94.0973 277.693 96.8503 278.934 99.2748C280.176 101.699 282.582 103.837 285.297 103.61C284.765 104.949 283.833 106.091 282.628 106.881C281.423 107.67 280.004 108.069 278.565 108.022C277.125 107.975 275.735 107.486 274.584 106.62C273.432 105.754 272.577 104.554 272.133 103.183C271.136 100.105 272.28 96.4338 270.536 93.708C269.571 92.1997 267.905 91.3125 266.299 90.5219C264.692 89.7314 263.006 88.92 261.928 87.4896C260.851 86.0593 260.636 83.8004 261.963 82.5986" fill="#2F2E41"/>
<path d="M295.448 183.001H208.324C208.238 183.001 208.156 182.967 208.095 182.906C208.034 182.846 208 182.763 208 182.677C208 182.591 208.034 182.509 208.095 182.448C208.156 182.388 208.238 182.354 208.324 182.354H295.448C295.534 182.354 295.617 182.388 295.677 182.448C295.738 182.509 295.772 182.591 295.772 182.677C295.772 182.763 295.738 182.846 295.677 182.906C295.617 182.967 295.534 183.001 295.448 183.001Z" fill="#3F3D56"/>
<path d="M208.042 127C212.965 127 216.956 122.807 216.956 117.636C216.956 112.464 212.965 108.271 208.042 108.271C203.12 108.271 199.129 112.464 199.129 117.636C199.129 122.807 203.12 127 208.042 127Z" fill="#33515B"/>
<g opacity="0.4">
<path opacity="0.4" d="M208.027 126.998C212.949 126.998 216.94 122.805 216.94 117.634C216.94 112.462 212.949 108.27 208.027 108.27C203.104 108.27 199.113 112.462 199.113 117.634C199.113 122.805 203.104 126.998 208.027 126.998Z" fill="#33515B"/>
</g>
<path d="M216.217 117.214C216.443 112.048 212.639 107.667 207.722 107.43C202.804 107.193 198.635 111.188 198.409 116.355C198.183 121.521 201.986 125.901 206.904 126.139C211.821 126.376 215.991 122.38 216.217 117.214Z" fill="#F87C00"/>
<g opacity="0.2">
<path opacity="0.2" d="M209.201 123.35C212.785 122.186 214.813 118.267 213.733 114.595C212.653 110.924 208.872 108.891 205.289 110.055C201.706 111.219 199.677 115.138 200.757 118.81C201.838 122.481 205.618 124.514 209.201 123.35Z" fill="white"/>
</g>
<g opacity="0.4">
<path opacity="0.4" d="M209.199 123.006C207.511 123.554 205.687 123.39 204.113 122.548C202.539 121.705 201.34 120.251 200.77 118.495C200.788 118.561 200.802 118.626 200.822 118.692C201.367 120.482 202.563 121.974 204.149 122.843C205.736 123.712 207.585 123.888 209.294 123.333C211.004 122.778 212.435 121.536 213.278 119.878C214.121 118.22 214.306 116.279 213.794 114.478C213.775 114.413 213.752 114.349 213.731 114.284C214.205 116.072 213.996 117.983 213.15 119.611C212.304 121.24 210.886 122.458 209.199 123.006Z" fill="#01B399"/>
</g>
<g opacity="0.3">
<path opacity="0.3" d="M205.301 110.082C206.988 109.534 208.813 109.698 210.387 110.541C211.96 111.384 213.159 112.838 213.729 114.595C213.712 114.53 213.696 114.464 213.676 114.4C213.413 113.505 212.984 112.674 212.415 111.953C211.846 111.232 211.147 110.636 210.359 110.199C209.57 109.762 208.707 109.492 207.82 109.406C206.932 109.319 206.037 109.417 205.185 109.693C204.334 109.97 203.542 110.42 202.856 111.018C202.17 111.616 201.603 112.35 201.187 113.179C200.771 114.007 200.514 114.913 200.432 115.846C200.349 116.779 200.442 117.719 200.705 118.614C200.725 118.678 200.746 118.743 200.767 118.806C200.293 117.018 200.502 115.106 201.348 113.477C202.195 111.848 203.613 110.63 205.301 110.082Z" fill="black"/>
</g>
<path d="M211.196 117.554C210.914 116.597 210.297 116.117 209.583 116.073C209.954 115.618 210.096 114.962 209.873 114.204C209.596 113.26 208.901 112.758 207.892 112.841L207.55 111.68L206.529 112.012L206.846 113.091L206.267 113.28L205.949 112.201L204.928 112.518L205.247 113.598L204.317 113.9L203.668 114.111L203.984 115.193L204.631 114.983L206.169 120.193L205.453 120.425L205.769 121.499L206.485 121.266L207.415 120.964L207.785 122.222L208.805 121.89L208.437 120.632L209.015 120.444L209.385 121.703L210.406 121.371L210.022 120.071C211.124 119.527 211.516 118.636 211.196 117.554ZM205.925 114.564L207.308 114.114C208.074 113.865 208.609 114.06 208.805 114.743C209.002 115.426 208.668 115.894 207.907 116.142L206.339 116.652L205.739 114.622L205.925 114.564ZM209.07 119.258L207.399 119.801L207.281 119.84L206.65 117.711L208.447 117.129C209.282 116.858 209.83 117.038 210.047 117.774C210.264 118.51 209.9 118.981 209.064 119.252L209.07 119.258Z" fill="#F87C00"/>
<path d="M211.196 117.554C210.914 116.597 210.297 116.117 209.583 116.073C209.954 115.618 210.096 114.962 209.873 114.204C209.596 113.26 208.901 112.758 207.892 112.841L207.55 111.68L206.529 112.012L206.846 113.091L206.267 113.28L205.949 112.201L204.928 112.518L205.247 113.598L204.317 113.9L203.668 114.111L203.984 115.193L204.631 114.983L206.169 120.193L205.453 120.425L205.769 121.499L206.485 121.266L207.415 120.964L207.785 122.222L208.805 121.89L208.437 120.632L209.015 120.444L209.385 121.703L210.406 121.371L210.022 120.071C211.124 119.527 211.516 118.636 211.196 117.554ZM205.925 114.564L207.308 114.114C208.074 113.865 208.609 114.06 208.805 114.743C209.002 115.426 208.668 115.894 207.907 116.142L206.339 116.652L205.739 114.622L205.925 114.564ZM209.07 119.258L207.399 119.801L207.281 119.84L206.65 117.711L208.447 117.129C209.282 116.858 209.83 117.038 210.047 117.774C210.264 118.51 209.9 118.981 209.064 119.252L209.07 119.258Z" fill="#33515B"/>
<path d="M210.718 117.71C210.436 116.754 209.819 116.275 209.105 116.23C209.476 115.775 209.618 115.119 209.395 114.362C209.118 113.418 208.423 112.916 207.414 112.999L207.071 111.838L206.051 112.168L206.368 113.248L205.789 113.437L205.471 112.36L204.45 112.692L204.767 113.772L203.838 114.074L203.191 114.275L203.506 115.35L204.153 115.139L205.688 120.355L204.972 120.588L205.288 121.66L206.004 121.427L206.934 121.125L207.304 122.384L208.324 122.053L207.954 120.795L208.534 120.606L208.904 121.865L209.925 121.533L209.544 120.228C210.644 119.688 211.038 118.796 210.718 117.71ZM205.447 114.721L206.83 114.272C207.596 114.022 208.131 114.219 208.327 114.902C208.524 115.585 208.19 116.052 207.429 116.3L205.86 116.81L205.261 114.782L205.447 114.721ZM208.592 119.416L206.921 119.959L206.803 119.997L206.172 117.868L207.969 117.287C208.804 117.015 209.352 117.194 209.567 117.931C209.783 118.667 209.422 119.141 208.583 119.413L208.592 119.416Z" fill="#F87C00"/>
<path d="M214.432 111.133C214.414 111.148 214.18 110.819 213.683 110.292C212.811 109.373 211.768 108.654 210.619 108.181C209.469 107.708 208.239 107.49 207.006 107.543C206.138 107.576 205.28 107.745 204.459 108.045C204.028 108.202 203.608 108.394 203.204 108.619C202.369 109.083 201.61 109.686 200.958 110.403C200.641 110.751 200.351 111.123 200.089 111.517C199.836 111.898 199.611 112.298 199.416 112.715C199.228 113.114 199.069 113.527 198.94 113.952C198.697 114.736 198.554 115.55 198.513 116.373C198.43 118.144 198.822 119.903 199.645 121.45C199.991 122.096 200.233 122.422 200.213 122.436C200.143 122.368 200.081 122.292 200.029 122.208C199.969 122.131 199.9 122.035 199.824 121.915C199.747 121.796 199.656 121.66 199.568 121.498C199.045 120.59 198.677 119.593 198.482 118.551C198.348 117.831 198.293 117.097 198.318 116.364C198.352 115.521 198.492 114.686 198.735 113.882C198.864 113.447 199.025 113.022 199.216 112.613C199.413 112.184 199.642 111.772 199.9 111.38C200.167 110.975 200.464 110.592 200.788 110.235C201.456 109.497 202.234 108.878 203.092 108.403C203.507 108.172 203.938 107.975 204.383 107.816C205.224 107.515 206.103 107.346 206.991 107.316C208.497 107.262 209.991 107.61 211.334 108.328C212.235 108.807 213.05 109.449 213.74 110.224C213.864 110.358 213.964 110.487 214.051 110.597C214.138 110.707 214.211 110.803 214.265 110.883C214.33 110.959 214.386 111.043 214.432 111.133Z" fill="#FAFAFA"/>
<path d="M205.451 112.36C205.463 112.401 205.07 112.566 204.458 112.788L204.522 112.662C204.624 112.977 204.739 113.336 204.859 113.736L204.894 113.852L204.781 113.888L204.507 113.978C204.025 114.135 203.574 114.274 203.198 114.381L203.263 114.253C203.433 114.908 203.525 115.344 203.486 115.355C203.447 115.366 203.288 114.953 203.077 114.313L203.047 114.219L203.141 114.186C203.508 114.052 203.955 113.899 204.438 113.742L204.714 113.654L204.636 113.811C204.521 113.41 204.419 113.038 204.336 112.725L204.31 112.623L204.399 112.598C205.027 112.407 205.439 112.311 205.451 112.36Z" fill="#FAFAFA"/>
<path d="M207.282 111.783C207.302 111.847 207.041 111.991 206.699 112.098C206.358 112.205 206.067 112.245 206.048 112.181C206.028 112.116 206.291 111.973 206.631 111.866C206.971 111.759 207.264 111.718 207.282 111.783Z" fill="#FAFAFA"/>
<path d="M205.603 120.295C205.542 120.315 205.154 119.185 204.739 117.777C204.324 116.369 204.037 115.204 204.098 115.184C204.16 115.163 204.547 116.285 204.962 117.702C205.377 119.118 205.665 120.274 205.603 120.295Z" fill="#FAFAFA"/>
<path d="M207.939 116.137C207.958 116.202 207.532 116.397 206.988 116.574C206.444 116.752 205.989 116.842 205.969 116.776C205.95 116.71 206.375 116.516 206.919 116.338C207.463 116.161 207.92 116.076 207.939 116.137Z" fill="#FAFAFA"/>
<path d="M208.912 119.312C208.931 119.377 208.506 119.572 207.962 119.75C207.418 119.927 206.962 120.017 206.942 119.951C206.923 119.885 207.348 119.691 207.892 119.514C208.435 119.336 208.892 119.248 208.912 119.312Z" fill="#FAFAFA"/>
<path d="M208.009 126.994C207.736 126.749 207.497 126.464 207.301 126.147C207.574 126.392 207.813 126.677 208.009 126.994Z" fill="#263238"/>
<path d="M206.489 126.829C206.225 126.595 205.996 126.321 205.809 126.017C205.949 126.124 206.073 126.251 206.179 126.396C206.302 126.523 206.406 126.669 206.489 126.829Z" fill="#263238"/>
<path d="M205.043 126.451C204.903 126.344 204.779 126.217 204.675 126.071C204.551 125.944 204.447 125.798 204.363 125.639C204.504 125.745 204.629 125.873 204.733 126.018C204.856 126.145 204.961 126.291 205.043 126.451Z" fill="#263238"/>
<path d="M209.572 126.865C209.427 126.753 209.297 126.619 209.188 126.469C209.06 126.336 208.95 126.184 208.863 126.019C209.009 126.13 209.138 126.264 209.247 126.415C209.375 126.548 209.484 126.7 209.572 126.865Z" fill="#263238"/>
<path d="M210.972 126.479C210.825 126.367 210.696 126.234 210.587 126.082C210.458 125.949 210.349 125.797 210.262 125.631C210.535 125.877 210.774 126.163 210.972 126.479Z" fill="#263238"/>
<path d="M212.294 125.864C212.149 125.752 212.02 125.619 211.911 125.468C211.783 125.335 211.673 125.183 211.586 125.018C211.731 125.13 211.86 125.263 211.969 125.414C212.098 125.547 212.207 125.698 212.294 125.864Z" fill="#263238"/>
<path d="M213.466 125.107C213.322 124.994 213.193 124.86 213.083 124.71C212.954 124.577 212.844 124.425 212.758 124.259C212.903 124.371 213.032 124.505 213.141 124.655C213.27 124.788 213.38 124.94 213.466 125.107Z" fill="#263238"/>
<path d="M214.526 124.095C214.381 123.983 214.251 123.85 214.141 123.699C214.013 123.566 213.903 123.414 213.816 123.247C213.961 123.36 214.091 123.493 214.2 123.644C214.328 123.777 214.438 123.929 214.526 124.095Z" fill="#263238"/>
<path d="M215.39 122.957C215.245 122.844 215.115 122.711 215.006 122.56C214.878 122.426 214.768 122.274 214.68 122.108C214.825 122.22 214.955 122.354 215.065 122.505C215.193 122.638 215.303 122.79 215.39 122.957Z" fill="#263238"/>
<path d="M216.046 121.822C215.9 121.711 215.771 121.577 215.662 121.426C215.535 121.292 215.425 121.141 215.336 120.976C215.482 121.087 215.612 121.221 215.721 121.372C215.849 121.505 215.959 121.657 216.046 121.822Z" fill="#263238"/>
<path d="M216.564 120.542C216.419 120.43 216.29 120.296 216.18 120.145C216.052 120.012 215.943 119.861 215.855 119.695C216.001 119.807 216.13 119.941 216.239 120.092C216.368 120.224 216.477 120.376 216.564 120.542Z" fill="#263238"/>
<path d="M216.947 119.155C216.802 119.043 216.672 118.909 216.563 118.759C216.435 118.626 216.326 118.474 216.238 118.309C216.384 118.42 216.513 118.554 216.622 118.705C216.75 118.838 216.859 118.99 216.947 119.155Z" fill="#263238"/>
<path d="M217.065 117.659C216.92 117.546 216.791 117.413 216.682 117.262C216.554 117.128 216.444 116.976 216.355 116.811C216.501 116.923 216.63 117.057 216.74 117.207C216.869 117.341 216.978 117.493 217.065 117.659Z" fill="#263238"/>
<path d="M216.949 116.122C216.777 115.98 216.623 115.816 216.489 115.635C216.335 115.471 216.2 115.288 216.086 115.092C216.257 115.235 216.412 115.399 216.547 115.58C216.701 115.743 216.836 115.925 216.949 116.122Z" fill="#263238"/>
<path d="M216.328 114.055C216.157 113.912 216.002 113.748 215.868 113.567C215.714 113.403 215.579 113.221 215.465 113.024C215.636 113.168 215.791 113.331 215.926 113.512C216.08 113.675 216.215 113.858 216.328 114.055Z" fill="#263238"/>
<g opacity="0.2">
<path opacity="0.2" d="M201.085 115.008L208.029 112.745L209.313 113.67H209.32H209.329L211.426 112.972L211.989 112.781L212.139 112.731L212.167 112.72C212.17 112.729 212.174 112.737 212.179 112.745C212.201 112.776 212.231 112.799 212.265 112.811C212.3 112.823 212.337 112.824 212.372 112.813C212.406 112.801 212.437 112.779 212.459 112.748C212.481 112.718 212.493 112.681 212.494 112.643C212.496 112.612 212.49 112.581 212.476 112.553C212.463 112.525 212.443 112.502 212.418 112.485C212.386 112.464 212.348 112.456 212.311 112.463C212.286 112.463 212.275 112.479 212.275 112.482C212.275 112.485 212.334 112.482 212.392 112.523C212.408 112.537 212.42 112.554 212.428 112.573C212.435 112.593 212.439 112.614 212.437 112.635C212.435 112.66 212.426 112.684 212.411 112.704C212.396 112.723 212.376 112.738 212.353 112.745C212.33 112.753 212.306 112.753 212.283 112.745C212.26 112.738 212.239 112.724 212.224 112.704C212.212 112.688 212.203 112.668 212.199 112.647C212.195 112.626 212.196 112.605 212.202 112.585C212.224 112.509 212.281 112.492 212.275 112.482C212.269 112.473 212.26 112.482 212.236 112.482C212.203 112.499 212.176 112.528 212.161 112.564C212.152 112.587 212.147 112.611 212.147 112.636C212.147 112.66 212.152 112.685 212.161 112.707H212.134L211.985 112.753L211.419 112.932L209.322 113.607L208.049 112.676L208.04 112.668H208.028L201.075 114.946L198.449 115.799C198.449 115.823 198.449 115.845 198.449 115.867L201.085 115.008Z" fill="white"/>
<path opacity="0.2" d="M211.859 110.848L213.207 111.806H213.217H213.229L214.567 111.361L214.546 111.331L213.226 111.749L211.878 110.783H211.866H211.851L210.978 111.066L207.755 112.125L206.777 112.454L206.512 112.547C206.481 112.556 206.451 112.568 206.422 112.583C206.454 112.578 206.485 112.57 206.516 112.56L206.784 112.478L207.767 112.163L211.005 111.122L211.859 110.848Z" fill="white"/>
<path opacity="0.2" d="M205.53 116.548L206.279 116.705H206.288L207.435 116.34L207.735 116.239H207.756C207.762 116.256 207.773 116.271 207.786 116.282C207.8 116.293 207.817 116.299 207.834 116.3C207.851 116.301 207.869 116.296 207.883 116.287C207.898 116.278 207.91 116.264 207.918 116.248C207.926 116.232 207.929 116.214 207.926 116.196C207.924 116.178 207.917 116.161 207.906 116.147C207.895 116.133 207.88 116.123 207.863 116.118C207.847 116.113 207.829 116.113 207.813 116.118C207.791 116.126 207.774 116.142 207.762 116.162C207.751 116.183 207.748 116.207 207.753 116.23H207.732L207.432 116.32L206.285 116.666L205.536 116.509H205.526L200.646 118.082L198.937 118.638L198.562 118.537C198.562 118.559 198.563 118.581 198.574 118.603L198.929 118.701H198.938H198.946L200.664 118.143L205.53 116.548Z" fill="white"/>
<path opacity="0.2" d="M206.077 115.942L205.381 115.873L204.97 116.008C204.891 115.731 204.821 115.467 204.746 115.222L204.738 115.193L204.713 115.203L202.824 115.838L202.301 116.021L202.243 116.041C202.235 116.02 202.22 116.002 202.2 115.992C202.18 115.982 202.157 115.981 202.137 115.988C202.125 115.992 202.115 115.997 202.106 116.005C202.097 116.013 202.09 116.023 202.084 116.033C202.079 116.044 202.076 116.056 202.075 116.068C202.074 116.08 202.075 116.093 202.078 116.104C202.082 116.116 202.087 116.127 202.095 116.136C202.102 116.146 202.111 116.154 202.122 116.159C202.132 116.165 202.143 116.168 202.155 116.17C202.166 116.171 202.178 116.169 202.189 116.166C202.211 116.159 202.229 116.144 202.24 116.123C202.251 116.103 202.253 116.078 202.247 116.056L202.306 116.037L202.835 115.868L204.69 115.261C204.761 115.513 204.835 115.778 204.91 116.057L204.919 116.087L204.946 116.078L205.381 115.936L206.077 116.007L206.877 115.749L210.472 114.57L211.23 114.814H211.24L211.914 114.588L212.092 114.525H212.101C212.123 114.555 212.153 114.578 212.188 114.59C212.222 114.602 212.259 114.602 212.294 114.591C212.329 114.58 212.359 114.558 212.381 114.527C212.403 114.497 212.416 114.46 212.417 114.422C212.419 114.391 212.412 114.36 212.399 114.333C212.385 114.305 212.365 114.282 212.339 114.265C212.308 114.243 212.27 114.235 212.233 114.241C212.208 114.241 212.197 114.257 212.199 114.26C212.2 114.263 212.256 114.26 212.314 114.301C212.33 114.315 212.342 114.332 212.35 114.352C212.358 114.372 212.362 114.393 212.36 114.414C212.359 114.44 212.35 114.464 212.335 114.483C212.32 114.503 212.299 114.517 212.276 114.525C212.254 114.532 212.229 114.532 212.206 114.525C212.183 114.518 212.163 114.503 212.148 114.484C212.135 114.467 212.127 114.448 212.122 114.427C212.118 114.406 212.119 114.385 212.124 114.364C212.146 114.289 212.203 114.27 212.199 114.26C212.194 114.251 212.182 114.26 212.16 114.26C212.125 114.276 212.098 114.306 212.083 114.342C212.074 114.368 212.07 114.395 212.072 114.422C212.075 114.45 212.083 114.476 212.097 114.499H212.089L211.91 114.553L211.236 114.762L210.478 114.507H210.47L206.861 115.67L206.077 115.942Z" fill="white"/>
<path opacity="0.2" d="M203.581 123.699C203.549 123.678 203.511 123.67 203.474 123.677C203.449 123.677 203.438 123.693 203.44 123.696C203.441 123.699 203.497 123.688 203.555 123.737C203.571 123.751 203.583 123.768 203.592 123.788C203.6 123.807 203.603 123.829 203.602 123.85C203.599 123.875 203.59 123.899 203.575 123.918C203.561 123.938 203.541 123.953 203.518 123.96C203.495 123.967 203.471 123.967 203.448 123.96C203.425 123.953 203.404 123.939 203.389 123.919C203.376 123.903 203.368 123.883 203.364 123.862C203.359 123.841 203.36 123.819 203.365 123.798C203.388 123.724 203.444 123.705 203.44 123.696C203.435 123.687 203.424 123.696 203.401 123.696C203.367 123.712 203.339 123.741 203.325 123.778C203.313 123.806 203.309 123.836 203.312 123.866C203.315 123.896 203.326 123.925 203.343 123.949C203.364 123.98 203.394 124.003 203.429 124.015C203.463 124.027 203.5 124.027 203.535 124.016C203.57 124.005 203.6 123.982 203.622 123.952C203.645 123.922 203.657 123.885 203.659 123.847H203.684L203.813 123.809L204.294 123.663L205.977 123.128H205.992V123.111C206.079 122.736 206.173 122.324 206.271 121.905V121.897V121.888L206.121 121.389C205.905 120.661 205.702 119.973 205.529 119.391V119.378H205.517L204.586 118.979H204.572L203.787 119.244L203.578 119.318L203.549 119.329C203.537 119.291 203.513 119.257 203.48 119.235C203.449 119.214 203.411 119.206 203.374 119.213C203.349 119.213 203.338 119.229 203.34 119.232C203.341 119.235 203.398 119.232 203.455 119.273C203.471 119.286 203.483 119.304 203.491 119.324C203.499 119.343 203.503 119.365 203.501 119.386C203.499 119.411 203.49 119.435 203.475 119.454C203.46 119.474 203.44 119.488 203.418 119.496C203.395 119.503 203.37 119.503 203.347 119.496C203.324 119.489 203.304 119.475 203.289 119.455C203.276 119.438 203.267 119.419 203.263 119.398C203.259 119.377 203.26 119.355 203.265 119.334C203.287 119.26 203.344 119.241 203.34 119.232C203.335 119.222 203.325 119.232 203.301 119.232C203.266 119.248 203.239 119.277 203.224 119.314C203.213 119.341 203.209 119.372 203.212 119.402C203.215 119.432 203.226 119.461 203.242 119.485C203.264 119.516 203.294 119.539 203.328 119.551C203.363 119.563 203.4 119.563 203.435 119.552C203.469 119.54 203.5 119.518 203.522 119.488C203.544 119.458 203.557 119.421 203.558 119.383C203.561 119.367 203.561 119.35 203.558 119.334H203.587L203.801 119.27L204.583 119.026L205.492 119.418C205.663 120.001 205.86 120.676 206.072 121.405L206.221 121.896L205.943 123.07L204.282 123.622L203.807 123.779L203.681 123.825L203.657 123.834C203.656 123.807 203.648 123.781 203.634 123.757C203.621 123.734 203.603 123.714 203.581 123.699Z" fill="white"/>
<path opacity="0.2" d="M212.22 119.074C212.241 119.067 212.26 119.052 212.271 119.031C212.282 119.011 212.285 118.987 212.28 118.964L212.53 118.888L213.451 118.599L214.266 117.534L216.213 116.904C216.213 116.881 216.213 116.859 216.213 116.835L214.262 117.474H214.253L213.445 118.55L212.536 118.855L212.289 118.942C212.281 118.92 212.265 118.902 212.245 118.891C212.225 118.881 212.201 118.879 212.18 118.885C212.168 118.889 212.158 118.895 212.149 118.903C212.14 118.91 212.133 118.92 212.127 118.931C212.122 118.942 212.119 118.953 212.118 118.966C212.116 118.978 212.118 118.99 212.121 119.002C212.126 119.025 212.138 119.045 212.157 119.059C212.175 119.072 212.198 119.078 212.22 119.074Z" fill="white"/>
<path opacity="0.2" d="M208.835 125.975C208.826 125.944 208.817 125.904 208.804 125.855L208.654 125.308C208.525 124.847 208.341 124.206 208.134 123.509C208.07 123.289 208.007 123.077 207.947 122.88V122.867H207.937L206.759 122.217C206.707 122.051 206.663 121.914 206.629 121.808C206.607 121.738 206.59 121.692 206.583 121.673C206.593 121.675 206.605 121.675 206.615 121.673C206.637 121.668 206.657 121.654 206.67 121.635C206.683 121.616 206.689 121.592 206.686 121.569C206.684 121.545 206.673 121.524 206.656 121.508C206.639 121.492 206.618 121.483 206.595 121.483C206.573 121.483 206.551 121.492 206.534 121.508C206.518 121.524 206.507 121.545 206.504 121.569C206.502 121.592 206.508 121.616 206.521 121.635C206.534 121.654 206.553 121.668 206.575 121.673C206.575 121.693 206.59 121.741 206.609 121.816C206.639 121.925 206.678 122.066 206.725 122.239H206.732L207.893 122.896L208.076 123.525C208.283 124.227 208.473 124.859 208.612 125.319C208.682 125.539 208.739 125.722 208.783 125.86C208.798 125.907 208.811 125.947 208.822 125.977C208.802 125.985 208.786 126 208.775 126.019L208.913 125.994C208.902 125.985 208.89 125.978 208.876 125.975C208.863 125.971 208.849 125.972 208.835 125.975Z" fill="white"/>
<path opacity="0.2" d="M202.129 113.325C202.134 113.343 202.144 113.359 202.158 113.371C202.171 113.383 202.188 113.391 202.206 113.392C202.224 113.394 202.242 113.391 202.257 113.382C202.273 113.373 202.286 113.359 202.294 113.343C202.303 113.326 202.306 113.307 202.304 113.288C202.302 113.27 202.295 113.252 202.284 113.238C202.272 113.223 202.257 113.213 202.24 113.208C202.222 113.203 202.204 113.203 202.187 113.209C202.165 113.216 202.146 113.233 202.135 113.254C202.124 113.276 202.122 113.302 202.129 113.325Z" fill="white"/>
<path opacity="0.2" d="M210.707 120.152L210.878 120.095L210.908 120.084C210.907 120.091 210.907 120.097 210.908 120.103C210.911 120.128 210.923 120.15 210.941 120.166C210.96 120.181 210.983 120.189 211.006 120.187C211.03 120.186 211.052 120.175 211.068 120.157C211.084 120.138 211.093 120.115 211.093 120.09C211.093 120.065 211.084 120.041 211.068 120.023C211.052 120.005 211.03 119.994 211.006 119.993C210.983 119.991 210.96 119.999 210.941 120.014C210.923 120.03 210.911 120.052 210.908 120.077H210.877L210.703 120.124L210.062 120.306L207.911 120.936C207.832 120.687 207.749 120.429 207.664 120.165L207.596 119.952C207.809 119.573 208.014 119.211 208.196 118.879V118.868V118.856C208.109 118.568 208.028 118.295 207.954 118.05V118.039H207.945L207.646 117.872H207.637H207.628L206.659 118.199L206.395 118.292L206.362 118.303C206.352 118.263 206.327 118.228 206.293 118.206C206.262 118.185 206.224 118.177 206.187 118.184C206.162 118.184 206.151 118.199 206.151 118.203C206.151 118.206 206.209 118.203 206.268 118.243C206.291 118.264 206.307 118.292 206.311 118.324H206.304C206.304 118.324 206.304 118.324 206.313 118.324C206.314 118.333 206.314 118.343 206.313 118.352C206.311 118.377 206.302 118.401 206.287 118.421C206.272 118.44 206.252 118.455 206.229 118.462C206.206 118.469 206.181 118.469 206.158 118.461C206.135 118.454 206.115 118.439 206.1 118.42C206.087 118.403 206.079 118.384 206.075 118.363C206.071 118.342 206.072 118.32 206.078 118.3C206.1 118.226 206.157 118.207 206.151 118.198C206.145 118.188 206.136 118.198 206.112 118.198C206.078 118.214 206.052 118.244 206.037 118.28C206.026 118.307 206.021 118.338 206.024 118.368C206.028 118.398 206.038 118.427 206.055 118.451C206.076 118.482 206.106 118.505 206.141 118.517C206.175 118.529 206.213 118.53 206.247 118.519C206.282 118.507 206.313 118.485 206.335 118.454C206.357 118.424 206.369 118.387 206.37 118.349C206.372 118.334 206.372 118.319 206.37 118.305L206.403 118.295L206.671 118.215L207.637 117.913L207.921 118.07C207.992 118.311 208.071 118.575 208.149 118.857L207.54 119.929V119.941V119.955C207.562 120.028 207.587 120.113 207.611 120.184C207.7 120.457 207.787 120.723 207.869 120.981L207.878 121.011L207.906 121.002L210.072 120.354L210.707 120.152Z" fill="white"/>
<path opacity="0.2" d="M209.342 120.148C209.177 119.559 209.005 118.939 208.83 118.311C208.804 118.225 208.78 118.138 208.756 118.052V118.039H208.744L207.756 117.46H207.745H207.732L202.647 119.115L199.93 122.02C199.939 122.032 199.947 122.044 199.954 122.056L202.68 119.161L207.748 117.518L208.714 118.083C208.737 118.166 208.761 118.24 208.783 118.33C208.963 118.971 209.138 119.6 209.306 120.198L209.315 120.229L209.343 120.22L216.155 118.086C216.155 118.069 216.155 118.052 216.155 118.034L209.342 120.148Z" fill="white"/>
<path opacity="0.2" d="M208.56 116.79C208.615 116.966 208.692 117.215 208.789 117.528H208.797L210.508 118.411H210.519H210.529L212.45 117.782L215.764 116.715L216.225 116.557C216.225 116.545 216.225 116.532 216.225 116.52L215.754 116.677L212.429 117.747L210.52 118.376L208.817 117.52L208.575 116.784L208.507 116.59C208.501 116.568 208.492 116.546 208.48 116.526C208.484 116.549 208.49 116.571 208.497 116.593L208.56 116.79Z" fill="white"/>
<path opacity="0.2" d="M209.752 114.058H209.745L209.309 114.544L207.744 115.065L207.294 115.222C207.251 115.236 207.216 115.25 207.186 115.261C207.174 115.226 207.152 115.196 207.122 115.175C207.09 115.154 207.053 115.146 207.016 115.153C206.99 115.153 206.978 115.168 206.98 115.172C206.981 115.175 207.038 115.164 207.097 115.213C207.116 115.231 207.13 115.255 207.137 115.282C207.139 115.296 207.139 115.31 207.137 115.324C207.135 115.349 207.126 115.373 207.111 115.392C207.096 115.412 207.075 115.426 207.052 115.433C207.03 115.441 207.005 115.441 206.982 115.433C206.96 115.426 206.939 115.411 206.924 115.392C206.912 115.375 206.903 115.356 206.899 115.335C206.895 115.314 206.896 115.293 206.902 115.272C206.923 115.198 206.981 115.179 206.975 115.17C206.969 115.161 206.96 115.17 206.936 115.17C206.903 115.187 206.876 115.216 206.861 115.252C206.85 115.28 206.845 115.31 206.849 115.34C206.852 115.37 206.862 115.399 206.879 115.423C206.901 115.454 206.931 115.478 206.965 115.49C207 115.502 207.037 115.502 207.072 115.491C207.106 115.48 207.137 115.457 207.159 115.427C207.181 115.396 207.193 115.359 207.194 115.321C207.195 115.302 207.192 115.283 207.186 115.264L207.294 115.233L207.744 115.095L209.322 114.594H209.33L209.767 114.111L210.604 113.858L213.19 113.061L213.97 112.813L214.172 112.745C214.176 112.757 214.182 112.768 214.191 112.778C214.199 112.788 214.209 112.795 214.219 112.801C214.23 112.806 214.242 112.81 214.255 112.81C214.267 112.811 214.279 112.809 214.29 112.805C214.302 112.801 214.313 112.794 214.322 112.786C214.331 112.777 214.338 112.767 214.343 112.755C214.349 112.744 214.352 112.731 214.352 112.718C214.353 112.706 214.351 112.693 214.347 112.681C214.341 112.657 214.326 112.637 214.305 112.625C214.284 112.613 214.26 112.61 214.237 112.617C214.215 112.624 214.196 112.64 214.184 112.662C214.173 112.683 214.17 112.709 214.177 112.733L213.973 112.789L213.185 113.017L210.595 113.795L209.752 114.058Z" fill="white"/>
<path opacity="0.2" d="M207.213 124.179C207.14 123.929 207.063 123.687 206.999 123.455V123.441H206.985L206.371 123.202H206.362H206.353L205.129 123.611L204.785 123.732L204.745 123.747C204.736 123.725 204.721 123.707 204.701 123.697C204.681 123.687 204.658 123.685 204.637 123.692C204.614 123.699 204.595 123.716 204.584 123.738C204.573 123.76 204.571 123.786 204.578 123.81C204.582 123.821 204.587 123.832 204.595 123.842C204.602 123.851 204.611 123.859 204.622 123.864C204.632 123.87 204.643 123.874 204.655 123.875C204.666 123.876 204.678 123.875 204.689 123.871C204.71 123.864 204.729 123.849 204.74 123.829C204.751 123.809 204.754 123.785 204.749 123.762L204.789 123.75L205.14 123.644L206.361 123.26L206.951 123.495C207.017 123.723 207.087 123.967 207.159 124.204L207.74 126.151H207.787C207.625 125.597 207.427 124.919 207.213 124.179Z" fill="white"/>
<path opacity="0.2" d="M208.35 125.528V125.515V125.502C208.067 124.543 207.799 123.638 207.565 122.846V122.835H207.556L206.658 122.344C206.454 121.666 206.288 121.114 206.169 120.724L206.032 120.277C206.017 120.231 206.005 120.195 205.996 120.165H206.021C206.044 120.157 206.062 120.141 206.073 120.119C206.084 120.097 206.087 120.071 206.079 120.047C206.073 120.023 206.057 120.004 206.036 119.992C206.015 119.981 205.991 119.978 205.969 119.986C205.946 119.993 205.927 120.009 205.916 120.031C205.906 120.053 205.903 120.078 205.91 120.102C205.916 120.121 205.927 120.138 205.943 120.149C205.958 120.161 205.977 120.167 205.996 120.167C205.996 120.198 206.014 120.236 206.026 120.283C206.056 120.392 206.097 120.543 206.151 120.733C206.265 121.126 206.425 121.687 206.623 122.371V122.381H206.632L207.522 122.878L208.293 125.512L208.23 125.638L207.985 126.127H208.058L208.286 125.674L208.35 125.528Z" fill="white"/>
<path opacity="0.2" d="M215.554 119.754L211.279 121.132L210.343 121.438H210.323V121.46C210.298 121.896 210.272 122.314 210.25 122.719V122.73C210.55 123.732 210.812 124.618 211.018 125.307L211.054 125.29C210.852 124.597 210.596 123.716 210.305 122.717C210.329 122.328 210.353 121.918 210.379 121.491L211.295 121.195L215.564 119.798L215.766 119.73C215.766 119.715 215.777 119.697 215.783 119.682L215.554 119.754Z" fill="white"/>
<path opacity="0.2" d="M209.343 117.257V117.271H209.357L209.71 117.428L210.702 117.884H210.712H210.723L212.905 117.18L213.537 116.964L213.687 116.914C213.695 116.936 213.71 116.954 213.73 116.964C213.75 116.974 213.773 116.976 213.795 116.969C213.806 116.965 213.816 116.959 213.825 116.951C213.834 116.944 213.841 116.934 213.847 116.923C213.852 116.912 213.856 116.901 213.857 116.888C213.858 116.876 213.857 116.864 213.853 116.852C213.85 116.841 213.844 116.83 213.837 116.82C213.829 116.811 213.82 116.803 213.81 116.797C213.799 116.792 213.788 116.788 213.777 116.787C213.765 116.786 213.753 116.787 213.742 116.791C213.721 116.798 213.703 116.813 213.692 116.834C213.681 116.854 213.678 116.878 213.684 116.901L213.534 116.944L212.896 117.142L210.724 117.836L209.743 117.381L209.402 117.224L208.842 115.335L208.834 115.309L208.809 115.318L207.434 115.776L207.05 115.908L206.999 115.927C206.99 115.917 206.979 115.908 206.968 115.9C206.936 115.879 206.898 115.871 206.861 115.878C206.836 115.878 206.825 115.894 206.827 115.897C206.828 115.9 206.884 115.897 206.942 115.938L206.95 115.946C206.938 115.95 206.927 115.954 206.917 115.96C206.917 115.96 206.929 115.96 206.953 115.96C206.964 115.973 206.973 115.989 206.979 116.006C206.985 116.023 206.987 116.041 206.986 116.059C206.983 116.084 206.974 116.108 206.959 116.127C206.945 116.147 206.925 116.161 206.902 116.169C206.879 116.176 206.855 116.176 206.832 116.169C206.809 116.162 206.788 116.148 206.773 116.128C206.76 116.112 206.751 116.092 206.747 116.071C206.742 116.05 206.743 116.028 206.749 116.007C206.772 115.933 206.828 115.914 206.824 115.905C206.819 115.896 206.808 115.905 206.784 115.905C206.75 115.922 206.723 115.951 206.709 115.987C206.697 116.015 206.693 116.045 206.696 116.076C206.699 116.106 206.71 116.135 206.727 116.16C206.748 116.191 206.778 116.213 206.813 116.225C206.847 116.237 206.884 116.238 206.919 116.226C206.954 116.215 206.984 116.193 207.006 116.163C207.029 116.132 207.041 116.096 207.043 116.058C207.043 116.015 207.029 115.974 207.004 115.941L207.052 115.927L207.44 115.809L208.797 115.381C208.957 115.932 209.144 116.569 209.343 117.257Z" fill="white"/>
<path opacity="0.2" d="M215.794 114.541L214.828 114.005H214.816H214.804L214.732 114.028L211.233 115.171L210.596 114.955H210.589L209.861 115.193H209.852C209.629 115.643 209.443 116.019 209.301 116.309C209.376 116.556 209.434 116.747 209.476 116.88L209.522 117.025C209.527 117.041 209.533 117.058 209.54 117.073C209.54 117.073 209.54 117.056 209.528 117.023C209.516 116.99 209.506 116.936 209.49 116.875L209.325 116.326C209.475 116.039 209.657 115.671 209.883 115.224L210.59 114.998L211.225 115.218H211.234H211.242L214.75 114.091L214.81 114.071L215.777 114.608H215.788H215.8L215.975 114.551C215.975 114.53 215.966 114.51 215.96 114.49L215.794 114.541Z" fill="white"/>
<path opacity="0.2" d="M202.903 109.287H202.915L203.937 109.852C204.199 110.728 204.433 111.513 204.62 112.143V112.155H204.632L205.53 112.399H205.538L206.026 112.233L206.152 112.187C206.167 112.183 206.181 112.178 206.194 112.17C206.179 112.171 206.164 112.174 206.149 112.179L206.022 112.217L205.533 112.374L204.66 112.119C204.476 111.49 204.248 110.703 203.992 109.823V109.811H203.98L202.957 109.243L202.799 108.711L202.746 108.744L202.896 109.274L202.903 109.287Z" fill="white"/>
<path opacity="0.2" d="M204.473 109.656V109.667V109.678C204.66 110.297 204.819 110.825 204.935 111.208C204.991 111.389 205.037 111.535 205.072 111.645C205.087 111.699 205.105 111.752 205.127 111.802C205.119 111.749 205.106 111.697 205.09 111.645C205.058 111.535 205.018 111.387 204.968 111.205C204.858 110.821 204.708 110.295 204.531 109.678C204.718 109.305 204.925 108.891 205.141 108.47L205.467 107.817V107.806V107.793C205.451 107.741 205.436 107.691 205.421 107.636L205.364 107.648C205.377 107.697 205.391 107.744 205.406 107.795C205.301 108.004 205.194 108.218 205.084 108.435L204.473 109.656Z" fill="white"/>
<path opacity="0.2" d="M205.465 109.4C205.471 109.384 205.472 109.367 205.469 109.35C205.466 109.333 205.458 109.317 205.447 109.305C205.435 109.292 205.421 109.283 205.405 109.279C205.389 109.275 205.372 109.275 205.357 109.281C205.346 109.284 205.335 109.29 205.326 109.298C205.317 109.305 205.309 109.315 205.304 109.326C205.298 109.337 205.295 109.349 205.293 109.361C205.292 109.373 205.293 109.385 205.297 109.397C205.304 109.421 205.32 109.441 205.341 109.452C205.362 109.464 205.387 109.466 205.409 109.459C205.427 109.452 205.443 109.439 205.454 109.422C205.481 109.441 205.517 109.463 205.559 109.489C205.671 109.556 205.832 109.646 206.02 109.756L206.14 110.175C206.236 110.5 206.327 110.795 206.395 111.007C206.427 111.123 206.468 111.236 206.518 111.345C206.5 111.226 206.473 111.108 206.437 110.993C206.38 110.777 206.296 110.481 206.2 110.156C206.155 109.998 206.112 109.861 206.071 109.728V109.715H206.061C205.866 109.61 205.698 109.522 205.578 109.462L205.465 109.4Z" fill="white"/>
<path opacity="0.2" d="M206.959 111.549V111.558H206.966L207.517 111.956H207.529H207.543L210.144 111.114L211.485 110.677H211.497V110.664L212.255 109.004L212.207 108.97L211.456 110.633L210.128 111.064L207.543 111.906L207.009 111.524L205.835 107.574V107.557H205.801V107.58C206.087 108.557 206.488 109.933 206.959 111.549Z" fill="white"/>
<path opacity="0.2" d="M208.265 112.304L207.646 112.494L205.612 113.153L205.528 112.865L205.521 112.843V112.826H205.506L204.6 112.511H204.591H204.582L202.951 113.054L202.479 113.211L202.355 113.257C202.326 113.268 202.311 113.274 202.313 113.276C202.328 113.278 202.343 113.278 202.358 113.276L202.485 113.238L202.961 113.093L204.591 112.577L205.471 112.878L205.566 113.193L205.575 113.224L205.605 113.213L207.666 112.536L208.28 112.327L208.445 112.267C208.464 112.262 208.483 112.253 208.5 112.242L208.44 112.255L208.265 112.304Z" fill="white"/>
<path opacity="0.2" d="M200.125 111.248L200.795 111.709H200.806H200.82L202.288 111.225L202.535 112.027L202.595 112.214C202.595 112.214 202.595 112.214 202.595 112.222C202.595 112.23 202.595 112.222 202.604 112.222L202.613 112.247C202.62 112.274 202.63 112.3 202.641 112.324C202.64 112.297 202.634 112.269 202.625 112.243V112.224C202.658 112.225 202.69 112.238 202.716 112.26C202.732 112.274 202.744 112.291 202.752 112.311C202.76 112.33 202.764 112.352 202.763 112.373C202.76 112.398 202.751 112.422 202.736 112.441C202.721 112.461 202.701 112.476 202.679 112.483C202.656 112.491 202.631 112.491 202.608 112.483C202.585 112.475 202.565 112.461 202.55 112.441C202.537 112.424 202.529 112.405 202.525 112.384C202.52 112.363 202.521 112.342 202.526 112.321C202.548 112.247 202.605 112.228 202.601 112.219C202.596 112.21 202.584 112.219 202.562 112.219C202.528 112.235 202.5 112.264 202.486 112.301C202.474 112.329 202.47 112.359 202.473 112.389C202.476 112.419 202.487 112.448 202.503 112.472C202.525 112.503 202.555 112.526 202.59 112.538C202.624 112.55 202.661 112.55 202.696 112.539C202.731 112.528 202.761 112.505 202.783 112.475C202.805 112.445 202.818 112.408 202.82 112.37C202.821 112.339 202.814 112.308 202.801 112.28C202.787 112.253 202.767 112.23 202.742 112.213C202.71 112.192 202.672 112.184 202.635 112.191H202.62C202.607 112.139 202.59 112.076 202.569 112.002C202.512 111.797 202.433 111.516 202.336 111.171V111.147H202.313L200.833 111.62L200.18 111.168L200.125 111.248Z" fill="white"/>
</g>
<defs>
<clipPath id="clip0_747_13836">
<rect width="236.029" height="181" fill="white"/>
</clipPath>
</defs>
</svg>
