<svg width="41" height="41" viewBox="0 0 41 41" fill="none" xmlns="http://www.w3.org/2000/svg" className="text-[#F87C00]">
<path d="M24.0055 3.13133C23.7431 2.91689 23.4408 2.75662 23.116 2.6598C22.7913 2.56297 22.4506 2.53153 22.1136 2.56728C21.7766 2.60302 21.4501 2.70526 21.1529 2.86805C20.8556 3.03085 20.5937 3.25098 20.3821 3.51571L12.9611 12.8125H16.2411L22.3834 5.11471L24.3566 6.72652L19.4109 12.8125H22.7114L26.3425 8.34346L30.7449 11.9386L29.9812 12.8125H30.75C31.5142 12.8117 32.2742 12.9248 33.005 13.1481C33.2842 12.6244 33.3729 12.0201 33.2561 11.4383C33.1392 10.8564 32.8241 10.3332 32.3644 9.95783L24.0055 3.13133ZM7.6875 14.0937C7.6875 13.7539 7.82249 13.428 8.06277 13.1877C8.30305 12.9474 8.62894 12.8125 8.96875 12.8125H10.3986L12.4358 10.25H8.96875C7.94932 10.25 6.97165 10.6549 6.25081 11.3758C5.52997 12.0966 5.125 13.0743 5.125 14.0937V29.4687C5.125 31.1677 5.79994 32.7972 7.00135 33.9986C8.20275 35.2 9.83221 35.875 11.5312 35.875H30.75C32.1092 35.875 33.4128 35.335 34.3739 34.3739C35.335 33.4128 35.875 32.1092 35.875 30.75V20.5C35.875 19.1407 35.335 17.8372 34.3739 16.876C33.4128 15.9149 32.1092 15.375 30.75 15.375H8.96875C8.62894 15.375 8.30305 15.24 8.06277 14.9997C7.82249 14.7594 7.6875 14.4335 7.6875 14.0937ZM26.9062 25.625H29.4688C29.8086 25.625 30.1345 25.7599 30.3747 26.0002C30.615 26.2405 30.75 26.5664 30.75 26.9062C30.75 27.246 30.615 27.5719 30.3747 27.8122C30.1345 28.0525 29.8086 28.1875 29.4688 28.1875H26.9062C26.5664 28.1875 26.2405 28.0525 26.0003 27.8122C25.76 27.5719 25.625 27.246 25.625 26.9062C25.625 26.5664 25.76 26.2405 26.0003 26.0002C26.2405 25.7599 26.5664 25.625 26.9062 25.625Z" fill="#F87C00"/>
</svg>
